<svg width="140" height="140" viewBox="0 0 140 140" fill="none" xmlns="http://www.w3.org/2000/svg">
<g clip-path="url(#clip0_2063_2784)">
<mask id="mask0_2063_2784" style="mask-type:luminance" maskUnits="userSpaceOnUse" x="0" y="0" width="140" height="140">
<path d="M0 0H140V140H0V0Z" fill="white"/>
</mask>
<g mask="url(#mask0_2063_2784)">
<mask id="mask1_2063_2784" style="mask-type:luminance" maskUnits="userSpaceOnUse" x="0" y="0" width="140" height="140">
<path d="M0 0H140V140H0V0Z" fill="white"/>
</mask>
<g mask="url(#mask1_2063_2784)">
<path d="M91.2299 53.7257L62.1846 82.7707L50.6363 71.2809C48.9451 69.5894 46.1454 69.5894 44.4539 71.2809C42.7627 72.9721 42.7627 75.7718 44.4539 77.4633L59.0934 92.0443C59.9682 92.919 61.0764 93.3272 62.1846 93.3272C63.2929 93.3272 64.4008 92.919 65.2758 92.0443L97.412 59.9078C99.1617 58.2166 99.1617 55.4754 97.412 53.7254C95.7208 52.0342 92.9796 52.0342 91.2296 53.7254L91.2299 53.7257Z" fill="#EC4C99"/>
<path d="M68.6 11.6743C36.4636 12.4908 10.9178 39.2616 11.676 71.3983C12.026 86.9705 18.4999 101.493 29.7564 112.225C40.7212 122.665 54.894 128.322 69.9418 128.322H71.3997C86.9722 127.972 101.495 121.498 112.227 110.242C122.958 98.9853 128.674 84.1711 128.324 68.5986C127.974 53.0261 121.5 38.5034 110.244 27.7718C98.9288 17.0402 84.1728 11.3246 68.6003 11.6743H68.6ZM105.869 104.176C96.7123 113.741 84.406 119.224 71.1665 119.515C57.8687 119.865 45.3872 114.966 35.7638 105.867C26.1402 96.7691 20.7161 84.4043 20.4246 71.1648C19.7831 43.8108 41.4795 21.0644 68.775 20.4229H70C82.773 20.4229 94.8461 25.2638 104.178 34.1289C113.743 43.286 119.225 55.5923 119.517 68.8318C119.867 82.0131 115.026 94.6112 105.869 104.176Z" fill="#EC4C99"/>
</g>
</g>
</g>
<defs>
<clipPath id="clip0_2063_2784">
<rect width="140" height="140" fill="white"/>
</clipPath>
</defs>
</svg>
