<svg width="24" height="24" viewBox="0 0 24 24" fill="none" xmlns="http://www.w3.org/2000/svg">
<g clip-path="url(#clip0_2056_1229)">
<path d="M21.3333 2.66667H2.66659C2.31296 2.66667 1.97382 2.80715 1.72378 3.0572C1.47373 3.30724 1.33325 3.64638 1.33325 4.00001V20C1.33325 20.3536 1.47373 20.6928 1.72378 20.9428C1.97382 21.1929 2.31296 21.3333 2.66659 21.3333H21.3333C21.6869 21.3333 22.026 21.1929 22.2761 20.9428C22.5261 20.6928 22.6666 20.3536 22.6666 20V4.00001C22.6666 3.64638 22.5261 3.30724 22.2761 3.0572C22.026 2.80715 21.6869 2.66667 21.3333 2.66667ZM2.66659 20V4.00001H21.3333V20H2.66659Z" fill="white"/>
<path d="M5.94678 9.33333C6.34234 9.33333 6.72902 9.21603 7.05792 8.99627C7.38682 8.77651 7.64316 8.46415 7.79454 8.0987C7.94591 7.73324 7.98552 7.33111 7.90835 6.94315C7.83118 6.55519 7.6407 6.19882 7.36099 5.91912C7.08129 5.63941 6.72492 5.44893 6.33696 5.37176C5.949 5.29459 5.54686 5.33419 5.18141 5.48557C4.81596 5.63695 4.5036 5.89329 4.28384 6.22219C4.06408 6.55109 3.94678 6.93777 3.94678 7.33333C3.94678 7.86376 4.15749 8.37247 4.53256 8.74754C4.90764 9.12262 5.41634 9.33333 5.94678 9.33333ZM5.94678 6.26666C6.15802 6.26534 6.3649 6.32678 6.54119 6.44318C6.71748 6.55958 6.85523 6.72571 6.93699 6.92049C7.01875 7.11528 7.04082 7.32996 7.00042 7.53731C6.96002 7.74466 6.85896 7.93534 6.71005 8.08519C6.56114 8.23503 6.3711 8.33729 6.164 8.37899C5.95691 8.42069 5.7421 8.39996 5.5468 8.31942C5.35151 8.23889 5.18452 8.10218 5.06702 7.92662C4.94951 7.75107 4.88678 7.54458 4.88678 7.33333C4.88853 7.05274 5.00077 6.78414 5.19918 6.58573C5.39759 6.38732 5.66619 6.27508 5.94678 6.27333V6.26666Z" fill="white"/>
<path d="M15.1868 10.2467L11.5868 13.8467L8.92011 11.18C8.7952 11.0558 8.62623 10.9861 8.45011 10.9861C8.27399 10.9861 8.10502 11.0558 7.98011 11.18L3.94678 15.2667V17.1533L8.47344 12.6267L10.6668 14.7867L8.16678 17.2867H10.0001L15.6334 11.6533L20.0001 16V14.12L16.1268 10.2467C16.0019 10.1225 15.8329 10.0528 15.6568 10.0528C15.4807 10.0528 15.3117 10.1225 15.1868 10.2467Z" fill="white"/>
</g>
<defs>
<clipPath id="clip0_2056_1229">
<rect width="24" height="24" fill="white"/>
</clipPath>
</defs>
</svg>
