<svg width="36" height="36" viewBox="0 0 36 36" fill="none" xmlns="http://www.w3.org/2000/svg">
<circle cx="18" cy="18" r="18" fill="url(#paint0_linear_4022_224)"/>
<path d="M21.3333 26.3333L21.6869 26.6869L21.3333 27.0404L20.9798 26.6869L21.3333 26.3333ZM20.8333 13.8333C20.8333 13.5572 21.0572 13.3333 21.3333 13.3333C21.6095 13.3333 21.8333 13.5572 21.8333 13.8333L20.8333 13.8333ZM25.0202 23.3535L21.6869 26.6869L20.9798 25.9798L24.3131 22.6464L25.0202 23.3535ZM20.9798 26.6869L17.6465 23.3535L18.3536 22.6464L21.6869 25.9798L20.9798 26.6869ZM20.8333 26.3333L20.8333 13.8333L21.8333 13.8333L21.8333 26.3333L20.8333 26.3333Z" fill="white"/>
<path d="M14.6667 9.66667L15.0202 9.31312L14.6667 8.95956L14.3131 9.31312L14.6667 9.66667ZM14.1667 22.1667C14.1667 22.4428 14.3905 22.6667 14.6667 22.6667C14.9428 22.6667 15.1667 22.4428 15.1667 22.1667L14.1667 22.1667ZM18.3536 12.6465L15.0202 9.31312L14.3131 10.0202L17.6464 13.3536L18.3536 12.6465ZM14.3131 9.31312L10.9798 12.6465L11.6869 13.3536L15.0202 10.0202L14.3131 9.31312ZM14.1667 9.66667L14.1667 22.1667L15.1667 22.1667L15.1667 9.66667L14.1667 9.66667Z" fill="white"/>
<defs>
<linearGradient id="paint0_linear_4022_224" x1="0" y1="36" x2="36.4139" y2="35.5763" gradientUnits="userSpaceOnUse">
<stop stop-color="#EC4C99"/>
<stop offset="1" stop-color="#AD0054"/>
</linearGradient>
</defs>
</svg>
