<svg width="24" height="24" viewBox="0 0 24 24" fill="none" xmlns="http://www.w3.org/2000/svg">
<path d="M16 22L16.3536 22.3536L16 22.7071L15.6464 22.3536L16 22ZM15.5 7C15.5 6.72386 15.7239 6.5 16 6.5C16.2761 6.5 16.5 6.72386 16.5 7L15.5 7ZM20.3536 18.3536L16.3536 22.3536L15.6464 21.6464L19.6464 17.6464L20.3536 18.3536ZM15.6464 22.3536L11.6464 18.3536L12.3536 17.6464L16.3536 21.6464L15.6464 22.3536ZM15.5 22L15.5 7L16.5 7L16.5 22L15.5 22Z" fill="white"/>
<path d="M8 2L8.35355 1.64645L8 1.29289L7.64645 1.64645L8 2ZM7.5 17C7.5 17.2761 7.72386 17.5 8 17.5C8.27614 17.5 8.5 17.2761 8.5 17L7.5 17ZM12.3536 5.64645L8.35355 1.64645L7.64645 2.35355L11.6464 6.35355L12.3536 5.64645ZM7.64645 1.64645L3.64645 5.64645L4.35355 6.35355L8.35355 2.35355L7.64645 1.64645ZM7.5 2L7.5 17L8.5 17L8.5 2L7.5 2Z" fill="white"/>
</svg>
