<svg width="20" height="20" viewBox="0 0 20 20" fill="none" xmlns="http://www.w3.org/2000/svg">
<path d="M7.5 13.4752L4.60833 10.5835C4.45252 10.4277 4.24119 10.3402 4.02083 10.3402C3.80048 10.3402 3.58915 10.4277 3.43333 10.5835C3.27752 10.7393 3.18998 10.9507 3.18998 11.171C3.18998 11.2801 3.21147 11.3882 3.25323 11.489C3.29498 11.5898 3.35618 11.6814 3.43333 11.7585L6.91667 15.2419C7.24167 15.5669 7.76667 15.5669 8.09167 15.2419L16.9083 6.42519C17.0641 6.26937 17.1517 6.05804 17.1517 5.83769C17.1517 5.61733 17.0641 5.406 16.9083 5.25019C16.7525 5.09437 16.5412 5.00684 16.3208 5.00684C16.1005 5.00684 15.8891 5.09437 15.7333 5.25019L7.5 13.4752Z" fill="white"/>
</svg>
