<svg width="60" height="60" viewBox="0 0 60 60" fill="none" xmlns="http://www.w3.org/2000/svg">
<path d="M45 9.375H15C11.9531 9.375 9.96094 11.0156 9.375 14.0625L5.625 31.875V45C5.62933 46.4905 6.22335 47.9187 7.27731 48.9727C8.33126 50.0267 9.75949 50.6207 11.25 50.625H48.75C50.2405 50.6207 51.6687 50.0267 52.7227 48.9727C53.7767 47.9187 54.3707 46.4905 54.375 45V31.875L50.625 14.0625C50.0391 10.8984 47.9297 9.375 45 9.375Z" stroke="white" stroke-width="2" stroke-linejoin="round"/>
<path d="M5.625 31.875H22.5C22.5 33.8641 23.2902 35.7718 24.6967 37.1783C26.1032 38.5848 28.0109 39.375 30 39.375C31.9891 39.375 33.8968 38.5848 35.3033 37.1783C36.7098 35.7718 37.5 33.8641 37.5 31.875H54.375" stroke="white" stroke-width="2" stroke-linecap="round" stroke-linejoin="round"/>
</svg>
