<svg width="20" height="20" viewBox="0 0 20 20" fill="none" xmlns="http://www.w3.org/2000/svg">
<mask id="mask0_2056_1428" style="mask-type:luminance" maskUnits="userSpaceOnUse" x="0" y="0" width="20" height="20">
<path d="M0 0H20V20H0V0Z" fill="white"/>
</mask>
<g mask="url(#mask0_2056_1428)">
<mask id="mask1_2056_1428" style="mask-type:luminance" maskUnits="userSpaceOnUse" x="0" y="0" width="20" height="20">
<path d="M0 0H20V20H0V0Z" fill="white"/>
</mask>
<g mask="url(#mask1_2056_1428)">
<path d="M17.2547 15.9524L14.1218 12.8204C14.9309 11.7423 15.4158 10.4075 15.4158 8.95854C15.4158 5.39826 12.5188 2.50122 8.95851 2.50122C5.39823 2.50122 2.50119 5.39826 2.50119 8.95854C2.50119 12.5188 5.39823 15.4158 8.95851 15.4158C10.4707 15.4158 11.8597 14.8901 12.9612 14.0161L16.0765 17.1305C16.1538 17.208 16.2456 17.2695 16.3467 17.3114C16.4478 17.3533 16.5562 17.3748 16.6656 17.3747C16.775 17.3748 16.8834 17.3533 16.9845 17.3114C17.0856 17.2695 17.1774 17.208 17.2547 17.1305C17.5804 16.8048 17.5804 16.2782 17.2547 15.9524ZM3.75099 8.95854C3.75099 6.08734 6.08727 3.75102 8.95851 3.75102C11.8297 3.75102 14.166 6.0873 14.166 8.95854C14.166 11.8297 11.8297 14.166 8.95851 14.166C6.08731 14.166 3.75099 11.8297 3.75099 8.95854Z" fill="white"/>
</g>
</g>
</svg>
