<svg width="20" height="20" viewBox="0 0 20 20" fill="none" xmlns="http://www.w3.org/2000/svg">
<g clip-path="url(#clip0_2063_2539)">
<mask id="mask0_2063_2539" style="mask-type:luminance" maskUnits="userSpaceOnUse" x="0" y="0" width="20" height="20">
<path d="M0 0H20V20H0V0Z" fill="white"/>
</mask>
<g mask="url(#mask0_2063_2539)">
<mask id="mask1_2063_2539" style="mask-type:luminance" maskUnits="userSpaceOnUse" x="0" y="0" width="20" height="20">
<path d="M0 0H20V20H0V0Z" fill="white"/>
</mask>
<g mask="url(#mask1_2063_2539)">
<path d="M17.3175 12.891C17.0731 12.6466 16.6767 12.6465 16.4323 12.891L13.959 15.3641L13.9592 7.29202C13.9592 6.9463 13.679 6.66602 13.3332 6.66602C12.9875 6.66602 12.7072 6.94626 12.7072 7.29198L12.707 15.3641L10.2342 12.8914C9.98964 12.6469 9.59332 12.6469 9.34888 12.8914C9.10444 13.1359 9.10444 13.5322 9.34888 13.7767L12.8903 17.3181C12.8914 17.3192 12.8926 17.3201 12.8937 17.3211C12.9073 17.3345 12.9214 17.3473 12.9361 17.3594C12.9437 17.3657 12.9517 17.3711 12.9596 17.377C12.9681 17.3833 12.9764 17.3899 12.9852 17.3959C12.9944 17.402 13.0039 17.4074 13.0134 17.413C13.0215 17.4178 13.0294 17.4229 13.0378 17.4274C13.0473 17.4325 13.0571 17.4368 13.0669 17.4414C13.0756 17.4455 13.0843 17.4499 13.0933 17.4537C13.1028 17.4576 13.1125 17.4608 13.1221 17.4642C13.1318 17.4677 13.1412 17.4713 13.1511 17.4743C13.1607 17.4773 13.1705 17.4794 13.1803 17.4819C13.1904 17.4844 13.2003 17.4872 13.2105 17.4893C13.2216 17.4915 13.2329 17.4928 13.2441 17.4944C13.2531 17.4957 13.262 17.4974 13.2711 17.4983C13.2917 17.5003 13.3123 17.5014 13.3329 17.5014C13.3536 17.5014 13.3742 17.5003 13.3947 17.4983C13.404 17.4973 13.413 17.4956 13.4222 17.4943C13.4332 17.4927 13.4443 17.4914 13.4552 17.4893C13.4657 17.4872 13.4758 17.4843 13.486 17.4817C13.4956 17.4793 13.5052 17.4773 13.5147 17.4744C13.5247 17.4714 13.5342 17.4676 13.544 17.4641C13.5535 17.4607 13.5632 17.4575 13.5726 17.4537C13.5816 17.4499 13.5902 17.4455 13.599 17.4414C13.6087 17.4368 13.6186 17.4325 13.6281 17.4274C13.6364 17.4229 13.6444 17.4178 13.6525 17.4129C13.6619 17.4073 13.6714 17.402 13.6806 17.3959C13.6896 17.3899 13.698 17.3832 13.7066 17.3768C13.7143 17.371 13.7222 17.3656 13.7297 17.3595C13.7457 17.3464 13.761 17.3326 13.7756 17.318L17.3175 13.7763C17.562 13.5319 17.562 13.1355 17.3175 12.891Z" fill="white"/>
<path d="M9.7656 7.10892C10.0101 7.35336 10.4064 7.3534 10.6509 7.10892C10.8953 6.86444 10.8953 6.46812 10.6509 6.22364L7.10948 2.68228C7.1084 2.6812 7.10716 2.68032 7.10608 2.67924C7.09253 2.66582 7.07838 2.65302 7.06368 2.64088C7.05616 2.63472 7.04828 2.62936 7.04056 2.6236C7.03192 2.61716 7.02344 2.61044 7.01448 2.60444C7.00544 2.5984 6.99604 2.59312 6.98676 2.5876C6.97852 2.58268 6.9704 2.57748 6.96192 2.57292C6.95248 2.56788 6.9428 2.5636 6.9332 2.55908C6.92432 2.55488 6.91556 2.55048 6.90644 2.54668C6.89704 2.5428 6.8874 2.53964 6.87788 2.53624C6.86816 2.53276 6.8586 2.529 6.84864 2.526C6.839 2.52308 6.8292 2.52092 6.81944 2.51848C6.8094 2.51596 6.79948 2.51316 6.78924 2.51112C6.7778 2.50884 6.76624 2.50748 6.75472 2.50584C6.74604 2.5046 6.73752 2.50296 6.72872 2.50208C6.68754 2.498 6.64606 2.498 6.60488 2.50208C6.5964 2.50292 6.5882 2.50452 6.57984 2.50568C6.56796 2.50732 6.55608 2.50876 6.54428 2.51112C6.53444 2.51308 6.52492 2.5158 6.51524 2.5182C6.50508 2.52072 6.49488 2.523 6.48484 2.52604C6.47536 2.52892 6.4662 2.53248 6.45688 2.5358C6.44688 2.53936 6.43688 2.54264 6.42704 2.54672C6.41836 2.55032 6.41008 2.5546 6.4016 2.55856C6.39152 2.56328 6.3814 2.56772 6.37156 2.573C6.36348 2.57732 6.3558 2.58232 6.34792 2.587C6.33828 2.59272 6.32852 2.5982 6.31912 2.60448C6.31032 2.61036 6.30204 2.61696 6.29356 2.62328C6.28572 2.62912 6.27768 2.6346 6.27004 2.64088C6.25408 2.65396 6.23872 2.66776 6.22416 2.68236L2.68228 6.224C2.4378 6.46844 2.4378 6.86484 2.68224 7.10932C2.7403 7.16754 2.8093 7.21371 2.88526 7.24518C2.96122 7.27665 3.04266 7.29279 3.12488 7.29268C3.28508 7.29268 3.44528 7.23156 3.56748 7.10932L6.04076 4.63624L6.04056 12.7083C6.04056 13.054 6.3208 13.3343 6.66656 13.3343C7.01228 13.3343 7.29252 13.0541 7.29256 12.7084L7.2928 4.6362L9.7656 7.10892Z" fill="white"/>
</g>
</g>
</g>
<defs>
<clipPath id="clip0_2063_2539">
<rect width="20" height="20" fill="white"/>
</clipPath>
</defs>
</svg>
