<svg width="20" height="20" viewBox="0 0 20 20" fill="none" xmlns="http://www.w3.org/2000/svg">
<circle cx="10" cy="10" r="10" fill="#EC4C99"/>
<path d="M8.75022 11.7376L7.30439 10.2918C7.22648 10.2139 7.12082 10.1701 7.01064 10.1701C6.90046 10.1701 6.7948 10.2139 6.71689 10.2918C6.63898 10.3697 6.59521 10.4753 6.59521 10.5855C6.59521 10.6401 6.60596 10.6941 6.62684 10.7445C6.64771 10.7949 6.67831 10.8407 6.71689 10.8793L8.45856 12.6209C8.62106 12.7834 8.88356 12.7834 9.04606 12.6209L13.4544 8.21259C13.5323 8.13469 13.5761 8.02902 13.5761 7.91884C13.5761 7.80867 13.5323 7.703 13.4544 7.62509C13.3765 7.54719 13.2708 7.50342 13.1606 7.50342C13.0505 7.50342 12.9448 7.54719 12.8669 7.62509L8.75022 11.7376Z" fill="white"/>
</svg>
