<svg width="18" height="18" viewBox="0 0 18 18" fill="none" xmlns="http://www.w3.org/2000/svg">
<path d="M5.41666 12.5832C5.56943 12.7359 5.76388 12.8123 5.99999 12.8123C6.2361 12.8123 6.43055 12.7359 6.58332 12.5832L8.99999 10.1665L11.4375 12.604C11.5903 12.7568 11.7814 12.8296 12.0108 12.8223C12.2397 12.8157 12.4305 12.7359 12.5833 12.5832C12.7361 12.4304 12.8125 12.2359 12.8125 11.9998C12.8125 11.7637 12.7361 11.5693 12.5833 11.4165L10.1667 8.99984L12.6042 6.56234C12.7569 6.40956 12.8297 6.21845 12.8225 5.989C12.8158 5.76012 12.7361 5.56928 12.5833 5.4165C12.4305 5.26373 12.2361 5.18734 12 5.18734C11.7639 5.18734 11.5694 5.26373 11.4167 5.4165L8.99999 7.83317L6.56249 5.39567C6.40971 5.24289 6.21888 5.16984 5.98999 5.1765C5.76054 5.18373 5.56943 5.26373 5.41666 5.4165C5.26388 5.56928 5.18749 5.76373 5.18749 5.99984C5.18749 6.23595 5.26388 6.43039 5.41666 6.58317L7.83332 8.99984L5.39582 11.4373C5.24305 11.5901 5.17027 11.7809 5.17749 12.0098C5.18416 12.2393 5.26388 12.4304 5.41666 12.5832ZM8.99999 17.3332C7.84721 17.3332 6.76388 17.1143 5.74999 16.6765C4.7361 16.2393 3.85416 15.6457 3.10416 14.8957C2.35416 14.1457 1.76055 13.2637 1.32332 12.2498C0.885545 11.2359 0.666656 10.1526 0.666656 8.99984C0.666656 7.84706 0.885545 6.76373 1.32332 5.74984C1.76055 4.73595 2.35416 3.854 3.10416 3.104C3.85416 2.354 4.7361 1.76011 5.74999 1.32234C6.76388 0.885115 7.84721 0.666504 8.99999 0.666504C10.1528 0.666504 11.2361 0.885115 12.25 1.32234C13.2639 1.76011 14.1458 2.354 14.8958 3.104C15.6458 3.854 16.2394 4.73595 16.6767 5.74984C17.1144 6.76373 17.3333 7.84706 17.3333 8.99984C17.3333 10.1526 17.1144 11.2359 16.6767 12.2498C16.2394 13.2637 15.6458 14.1457 14.8958 14.8957C14.1458 15.6457 13.2639 16.2393 12.25 16.6765C11.2361 17.1143 10.1528 17.3332 8.99999 17.3332ZM8.99999 15.6665C10.8472 15.6665 12.4203 15.0173 13.7192 13.719C15.0175 12.4201 15.6667 10.8471 15.6667 8.99984C15.6667 7.15262 15.0175 5.57956 13.7192 4.28067C12.4203 2.98234 10.8472 2.33317 8.99999 2.33317C7.15277 2.33317 5.57999 2.98234 4.28166 4.28067C2.98277 5.57956 2.33332 7.15262 2.33332 8.99984C2.33332 10.8471 2.98277 12.4201 4.28166 13.719C5.57999 15.0173 7.15277 15.6665 8.99999 15.6665Z" fill="#D63281"/>
</svg>
