<svg width="20" height="20" viewBox="0 0 20 20" fill="none" xmlns="http://www.w3.org/2000/svg">
<g clip-path="url(#clip0_2415_313)">
<mask id="mask0_2415_313" style="mask-type:luminance" maskUnits="userSpaceOnUse" x="0" y="0" width="20" height="20">
<path d="M0 0H20V20H0V0Z" fill="white"/>
</mask>
<g mask="url(#mask0_2415_313)">
<mask id="mask1_2415_313" style="mask-type:luminance" maskUnits="userSpaceOnUse" x="0" y="0" width="20" height="20">
<path d="M0 0H20V20H0V0Z" fill="white"/>
</mask>
<g mask="url(#mask1_2415_313)">
<path d="M17.2545 15.9524L14.1216 12.8204C14.9307 11.7422 15.4156 10.4074 15.4156 8.95852C15.4156 5.39824 12.5185 2.5012 8.9583 2.5012C5.39802 2.5012 2.50098 5.39824 2.50098 8.95852C2.50098 12.5188 5.39802 15.4158 8.9583 15.4158C10.4705 15.4158 11.8595 14.89 12.961 14.016L16.0763 17.1305C16.1536 17.208 16.2454 17.2694 16.3465 17.3113C16.4476 17.3532 16.5559 17.3747 16.6654 17.3746C16.7748 17.3747 16.8832 17.3532 16.9843 17.3113C17.0854 17.2694 17.1772 17.208 17.2545 17.1305C17.5802 16.8048 17.5802 16.2782 17.2545 15.9524ZM3.75078 8.95852C3.75078 6.08732 6.08706 3.751 8.9583 3.751C11.8295 3.751 14.1658 6.08728 14.1658 8.95852C14.1658 11.8297 11.8295 14.166 8.9583 14.166C6.0871 14.166 3.75078 11.8297 3.75078 8.95852Z" fill="#0A0012"/>
</g>
</g>
</g>
<defs>
<clipPath id="clip0_2415_313">
<rect width="20" height="20" fill="white"/>
</clipPath>
</defs>
</svg>
