<svg width="24" height="24" viewBox="0 0 24 24" fill="none" xmlns="http://www.w3.org/2000/svg">
<path fill-rule="evenodd" clip-rule="evenodd" d="M9.94411 3.25H14.0561C15.8941 3.25 17.3501 3.25 18.4891 3.403C19.6611 3.561 20.6101 3.893 21.3591 4.641C22.1071 5.39 22.4391 6.339 22.5971 7.511C22.6871 8.184 22.7241 8.967 22.7391 9.874C22.7522 9.95001 22.7535 10.0276 22.7431 10.104C22.7501 10.67 22.7501 11.282 22.7501 11.944V12.056C22.7501 13.894 22.7501 15.35 22.5971 16.489C22.4391 17.661 22.1071 18.61 21.3591 19.359C20.6101 20.107 19.6611 20.439 18.4891 20.597C17.3491 20.75 15.8941 20.75 14.0561 20.75H9.94411C8.10611 20.75 6.65011 20.75 5.51111 20.597C4.33911 20.439 3.39011 20.107 2.64111 19.359C1.89311 18.61 1.56111 17.661 1.40311 16.489C1.25011 15.349 1.25011 13.894 1.25011 12.056V11.944C1.25011 11.282 1.25011 10.67 1.25711 10.104C1.24639 10.0276 1.2474 9.95007 1.26011 9.874C1.27611 8.967 1.31311 8.184 1.40311 7.511C1.56111 6.339 1.89311 5.39 2.64111 4.641C3.39011 3.893 4.33911 3.561 5.51111 3.403C6.65111 3.25 8.10611 3.25 9.94411 3.25ZM2.75211 10.75C2.75011 11.138 2.75011 11.554 2.75011 12C2.75011 13.907 2.75211 15.262 2.89011 16.29C3.02511 17.295 3.27911 17.875 3.70211 18.298C4.12511 18.721 4.70511 18.975 5.71111 19.11C6.73911 19.248 8.09311 19.25 10.0001 19.25H14.0001C15.9071 19.25 17.2621 19.248 18.2901 19.11C19.2951 18.975 19.8751 18.721 20.2981 18.298C20.7211 17.875 20.9751 17.295 21.1101 16.289C21.2481 15.261 21.2501 13.907 21.2501 12C21.2501 11.554 21.2501 11.138 21.2481 10.75H2.75211ZM21.2241 9.25H2.77611C2.79611 8.663 2.83011 8.156 2.89011 7.71C3.02511 6.705 3.27911 6.125 3.70211 5.702C4.12511 5.279 4.70511 5.025 5.71111 4.89C6.73911 4.752 8.09311 4.75 10.0001 4.75H14.0001C15.9071 4.75 17.2621 4.752 18.2901 4.89C19.2951 5.025 19.8751 5.279 20.2981 5.702C20.7211 6.125 20.9751 6.705 21.1101 7.711C21.1701 8.156 21.2041 8.663 21.2241 9.25ZM5.25011 16C5.25011 15.8011 5.32912 15.6103 5.46978 15.4697C5.61043 15.329 5.8012 15.25 6.00011 15.25H10.0001C10.199 15.25 10.3898 15.329 10.5304 15.4697C10.6711 15.6103 10.7501 15.8011 10.7501 16C10.7501 16.1989 10.6711 16.3897 10.5304 16.5303C10.3898 16.671 10.199 16.75 10.0001 16.75H6.00011C5.8012 16.75 5.61043 16.671 5.46978 16.5303C5.32912 16.3897 5.25011 16.1989 5.25011 16ZM11.7501 16C11.7501 15.8011 11.8291 15.6103 11.9698 15.4697C12.1104 15.329 12.3012 15.25 12.5001 15.25H14.0001C14.199 15.25 14.3898 15.329 14.5304 15.4697C14.6711 15.6103 14.7501 15.8011 14.7501 16C14.7501 16.1989 14.6711 16.3897 14.5304 16.5303C14.3898 16.671 14.199 16.75 14.0001 16.75H12.5001C12.3012 16.75 12.1104 16.671 11.9698 16.5303C11.8291 16.3897 11.7501 16.1989 11.7501 16Z" fill="white"/>
</svg>
