<svg width="20" height="20" viewBox="0 0 20 20" fill="none" xmlns="http://www.w3.org/2000/svg">
<path fill-rule="evenodd" clip-rule="evenodd" d="M17.1083 10.4417C17.2254 10.3245 17.2911 10.1657 17.2911 10C17.2911 9.83441 17.2254 9.67556 17.1083 9.55837L12.1083 4.55837C12.0511 4.49696 11.9821 4.44771 11.9055 4.41355C11.8288 4.37939 11.746 4.36102 11.6621 4.35954C11.5782 4.35806 11.4948 4.3735 11.417 4.40493C11.3392 4.43637 11.2685 4.48315 11.2091 4.5425C11.1498 4.60185 11.103 4.67255 11.0716 4.75037C11.0401 4.82819 11.0247 4.91155 11.0262 4.99547C11.0277 5.07939 11.046 5.16215 11.0802 5.23882C11.1143 5.31548 11.1636 5.38448 11.225 5.4417L15.1583 9.37503L3.33334 9.37504C3.16758 9.37504 3.00861 9.44088 2.8914 9.55809C2.77419 9.6753 2.70834 9.83428 2.70834 10C2.70834 10.1658 2.77419 10.3248 2.8914 10.442C3.00861 10.5592 3.16758 10.625 3.33334 10.625L15.1583 10.625L11.225 14.5584C11.1636 14.6156 11.1143 14.6846 11.0802 14.7613C11.046 14.8379 11.0277 14.9207 11.0262 15.0046C11.0247 15.0885 11.0401 15.1719 11.0716 15.2497C11.103 15.3275 11.1498 15.3982 11.2091 15.4576C11.2685 15.5169 11.3392 15.5637 11.417 15.5951C11.4948 15.6266 11.5782 15.642 11.6621 15.6405C11.746 15.639 11.8288 15.6207 11.9055 15.5865C11.9821 15.5524 12.0511 15.5031 12.1083 15.4417L17.1083 10.4417Z" fill="white"/>
</svg>
