<svg width="140" height="40" viewBox="0 0 140 40" fill="none" xmlns="http://www.w3.org/2000/svg">
<g clip-path="url(#clip0_2443_261)">
<path fill-rule="evenodd" clip-rule="evenodd" d="M0 14.6H5.7V25.8C5.8 30.6 9.7 34.4 14.6 34.4C19.5 34.4 23.5 30.5 23.5 25.6C23.5 20.8 19.6 17 14.8 16.8C14.7 16.8 14.6 16.8 14.6 16.8C13 16.8 11.8 15.6 11.8 14C11.8 12.5 13.1 11.2 14.6 11.2C14.6 11.2 14.7 11.2 14.8 11.2C22.8 11.3 29.2 17.7 29.2 25.5C29.2 33.4 22.7 39.8 14.6 39.8C6.5 40 0 33.6 0 25.6C0 23.7 0 14.6 0 14.6Z" fill="url(#paint0_linear_2443_261)"/>
<path fill-rule="evenodd" clip-rule="evenodd" d="M-0.000282115 14.8C-0.000282115 14.8 -0.100282 19.8 2.09972 23.3C4.39972 27 6.09972 27.9 6.09972 27.9C6.09972 27.9 5.79972 25.9 5.79972 24.5C5.79972 23.2 -0.000282115 14.8 -0.000282115 14.8Z" fill="#680080"/>
<path fill-rule="evenodd" clip-rule="evenodd" d="M28.1 19.9C28.1 20 28 20.1 28 20.1C28 20.1 27.2 18.3 26.1 16.9C25 15.4 23.5 14.4 23.5 14.4V14.3C23.4 9.5 19.5 5.7 14.6 5.7C9.7 5.7 5.7 9.6 5.7 14.5C5.7 19.3 9.6 23.1 14.4 23.3C14.5 23.3 14.6 23.3 14.6 23.3C16.2 23.3 17.4 24.5 17.4 26.1C17.4 27.6 16.1 28.9 14.6 28.9C14.6 28.9 14.5 28.9 14.4 28.9C6.4 28.6 0 22.2 0 14.3C0 6.4 6.5 0 14.6 0C22.7 0 29.2 6.4 29.2 14.3C29.2 16.3 28.8 18.2 28.1 19.9Z" fill="#BE7ED7"/>
<path fill-rule="evenodd" clip-rule="evenodd" d="M28.0002 20.1C28.0002 20.1 27.2002 18.3 26.1002 16.9C25.0002 15.4 23.5002 14.4 23.5002 14.4V14.3C23.5002 13.5 23.4002 12.8 23.2002 12.1V12C23.2002 12 25.3002 14.2 26.3002 16.1C27.9002 19.2 28.0002 20.1 28.0002 20.1Z" fill="#680080"/>
<path d="M44.1 20.8C44.1 21.2 44 21.6 43.9 22C43.8 22.4 43.6 22.8 43.3 23.1C42.8 23.7 42.2 24.1 41.4 24.4C40.9 24.5 40.4 24.6 39.9 24.6H35V12H39.7C40.3 12 40.8 12.1 41.1 12.2C41.8 12.4 42.4 12.8 42.9 13.4C43.1 13.7 43.3 14 43.5 14.4C43.6 14.8 43.7 15.2 43.7 15.6C43.7 15.9 43.6 16.3 43.5 16.6C43.4 16.9 43.2 17.2 43 17.5C42.9 17.6 42.8 17.7 42.7 17.9C43 18.1 43.3 18.4 43.6 18.8C43.9 19.3 44.1 20 44.1 20.8ZM36.9 13.7V17.1H40C40.2 17.1 40.5 17 40.7 16.9C41 16.8 41.2 16.6 41.3 16.4C41.5 16.1 41.7 15.7 41.7 15.3C41.7 14.9 41.5 14.5 41.2 14.2C41 14 40.9 13.9 40.6 13.8C40.4 13.7 40.2 13.7 39.9 13.7H36.9ZM41.8 19.6C41.6 19.4 41.4 19.2 41.1 19.1C40.8 19 40.6 18.9 40.3 18.9H36.9V22.9H39.9C40.3 22.9 40.6 22.9 40.9 22.8C41.2 22.7 41.4 22.6 41.6 22.3C42 21.9 42.2 21.5 42.2 20.9C42.2 20.4 42.1 20 41.8 19.6Z" fill="#0A0012"/>
<path d="M52.1004 24.6V23.3C51.7004 23.9 51.2004 24.3 50.6004 24.5C50.0004 24.7 49.4004 24.9 48.6004 24.9C47.7004 24.9 46.9004 24.6 46.3004 24.1C45.7004 23.6 45.4004 22.9 45.4004 22C45.4004 21.4 45.5004 20.9 45.8004 20.4C46.1004 20 46.5004 19.6 47.1004 19.3C47.5004 19.1 48.1004 18.9 48.7004 18.8C49.3004 18.7 50.1004 18.6 51.0004 18.4L51.8004 18.3C51.8004 17.8 51.5004 17.3 51.2004 17C50.8004 16.7 50.3004 16.6 49.7004 16.6C48.6004 16.6 47.8004 17 47.1004 17.7L46.0004 16.5C47.0004 15.4 48.3004 14.9 49.8004 14.9C50.3004 14.9 50.8004 15 51.2004 15.2C51.7004 15.4 52.1004 15.6 52.4004 15.9C53.2004 16.6 53.6004 17.6 53.6004 18.9V24.6H52.1004ZM51.8004 21.1C51.8004 20.8 51.9004 20.4 51.9004 19.8C50.9004 20 49.9004 20.1 49.1004 20.3C48.6004 20.4 48.2004 20.6 47.8004 20.9C47.5004 21.2 47.3004 21.5 47.3004 21.9C47.3004 22.3 47.5004 22.7 47.8004 23C48.1004 23.3 48.5004 23.4 49.0004 23.4C49.6004 23.4 50.1004 23.3 50.5004 23C50.9004 22.8 51.3004 22.4 51.5004 22C51.7004 21.7 51.8004 21.4 51.8004 21.1Z" fill="#0A0012"/>
<path d="M69 17C69.1 17.5 69.2 18.1 69.2 18.8V24.6H67.3V18.9C67.3 18.4 67.3 18.1 67.2 17.8C67.1 17.5 67 17.3 66.7 17C66.5 16.8 66.3 16.7 66.1 16.6C65.9 16.5 65.6 16.5 65.4 16.5C65.1 16.5 64.8 16.6 64.6 16.7C64.3 16.8 64.1 17 63.9 17.2C63.7 17.4 63.6 17.6 63.5 17.9C63.4 18.1 63.4 18.4 63.4 18.7V18.8V24.6H61.6V18.9C61.6 18.4 61.6 18.1 61.5 17.8C61.4 17.5 61.3 17.3 61 17C60.8 16.8 60.6 16.7 60.4 16.6C60.2 16.5 59.9 16.5 59.7 16.5C59.4 16.5 59.1 16.6 58.9 16.7C58.6 16.8 58.4 17 58.3 17.2C58.1 17.4 58 17.6 57.9 17.9C57.8 18.1 57.8 18.4 57.8 18.7V24.6H56V15.2H57.6V16.2C57.9 15.8 58.3 15.5 58.8 15.3C59.3 15.1 59.8 15 60.3 15C60.7 15 61.1 15.1 61.5 15.2C61.9 15.3 62.2 15.5 62.5 15.8C62.7 16 62.9 16.2 63.1 16.6C63.4 16.1 63.8 15.7 64.3 15.5C64.8 15.2 65.4 15.1 65.9 15.1C66.3 15.1 66.7 15.2 67.1 15.3C67.5 15.4 67.8 15.6 68.1 15.9C68.7 16.1 68.9 16.5 69 17Z" fill="#0A0012"/>
<path d="M80.4996 19.9C80.4996 21.3 80.0996 22.5 79.3996 23.4C78.9996 23.9 78.4996 24.3 77.9996 24.5C77.3996 24.8 76.7996 24.9 76.1996 24.9C75.5996 24.9 74.9996 24.8 74.4996 24.6C73.9996 24.4 73.4996 24.1 73.1996 23.7V24.6H71.5996V12H73.3996V15.8C73.7996 15.5 74.1996 15.3 74.6996 15.1C75.1996 14.9 75.6996 14.8 76.1996 14.8C76.8996 14.8 77.4996 14.9 78.0996 15.2C78.6996 15.5 79.1996 15.8 79.5996 16.3C80.1996 17.3 80.4996 18.5 80.4996 19.9ZM78.5996 19.9C78.5996 18.9 78.3996 18.1 77.9996 17.5C77.5996 16.9 76.8996 16.5 75.8996 16.5C75.4996 16.5 75.0996 16.6 74.7996 16.7C74.4996 16.8 74.1996 17.1 73.9996 17.3C73.4996 17.9 73.2996 18.7 73.2996 19.8C73.2996 20.3 73.3996 20.7 73.4996 21.2C73.5996 21.6 73.7996 22 73.9996 22.3C74.4996 22.9 75.1996 23.2 75.9996 23.2C76.3996 23.2 76.7996 23.1 77.1996 23C77.5996 22.8 77.8996 22.6 78.0996 22.3C78.3996 21.7 78.5996 20.9 78.5996 19.9Z" fill="#0A0012"/>
<path d="M88.4998 24.6V23.3C88.0998 23.9 87.5998 24.3 86.9998 24.5C86.3998 24.7 85.7998 24.9 84.9998 24.9C84.0998 24.9 83.2998 24.6 82.6998 24.1C82.0998 23.6 81.7998 22.9 81.7998 22C81.7998 21.4 81.8998 20.9 82.1998 20.4C82.4998 20 82.8998 19.6 83.4998 19.3C83.8998 19.1 84.4998 18.9 85.0998 18.8C85.6998 18.7 86.4998 18.6 87.3998 18.4L88.1998 18.3C88.1998 17.8 87.8998 17.3 87.5998 17C87.1998 16.7 86.6998 16.6 86.0998 16.6C84.9998 16.6 84.1998 17 83.4998 17.7L82.3998 16.5C83.3998 15.4 84.6998 14.9 86.1998 14.9C86.6998 14.9 87.1998 15 87.5998 15.2C88.0998 15.4 88.4998 15.6 88.7998 15.9C89.5998 16.6 89.9998 17.6 89.9998 18.9V24.6H88.4998ZM88.2998 21.1C88.2998 20.8 88.3998 20.4 88.3998 19.8C87.3998 20 86.3998 20.1 85.5998 20.3C85.0998 20.4 84.6998 20.6 84.2998 20.9C83.9998 21.2 83.7998 21.5 83.7998 21.9C83.7998 22.3 83.9998 22.7 84.2998 23C84.5998 23.3 84.9998 23.4 85.4998 23.4C86.0998 23.4 86.5998 23.3 86.9998 23C87.3998 22.8 87.7998 22.4 87.9998 22C88.0998 21.7 88.1998 21.4 88.2998 21.1Z" fill="#0A0012"/>
<path d="M103.6 15.7C103.4 15.3 103.2 15 103 14.7C102.8 14.4 102.5 14.2 102.2 14C101.7 13.7 101.1 13.5 100.5 13.5C99.8 13.5 99.2 13.6 98.8 13.9C98.5 14.1 98.3 14.2 98.2 14.5C98 14.7 98 15 98 15.3C98 15.6 98.1 15.9 98.4 16.2C98.7 16.5 99.2 16.7 100 17L102.2 17.6C102.7 17.8 103.2 17.9 103.5 18.1C103.9 18.3 104.2 18.5 104.5 18.8C104.9 19.1 105.1 19.5 105.3 20C105.5 20.4 105.6 20.9 105.6 21.4C105.6 21.9 105.5 22.5 105.2 23C104.9 23.5 104.5 23.9 104.1 24.2C103.7 24.5 103.2 24.7 102.6 24.8C102 24.9 101.4 25 100.7 25C98.9 25 97.5 24.4 96.6 23.3C96.1 22.7 95.8 21.9 95.5 20.9L97.4 20.4C97.5 21.1 97.8 21.7 98.1 22.1C98.4 22.5 98.8 22.8 99.2 23C99.7 23.2 100.2 23.3 100.7 23.3C101.1 23.3 101.5 23.2 101.9 23.1C102.3 23 102.6 22.8 102.9 22.7C103.3 22.4 103.6 21.9 103.6 21.3C103.6 20.9 103.4 20.5 103.1 20.2C102.8 19.9 102.3 19.7 101.7 19.5L99.4 18.8C98.3 18.5 97.5 18.1 97 17.6C96.7 17.3 96.4 17 96.2 16.5C96.1 16 96 15.6 96 15.2C96 14.6 96.2 14 96.5 13.5C96.9 13 97.3 12.6 97.9 12.3C98.6 12 99.5 11.8 100.5 11.8C101.5 11.8 102.4 12 103.1 12.4C104.1 13 104.9 13.9 105.4 15.2L103.6 15.7Z" fill="#0A0012"/>
<path d="M119.6 15.2L116.7 24.6H115.1L113 17.8L110.8 24.6H109.3L106.4 15.1H108.2L110.2 21.6L112.2 15.1H113.8L115.8 21.6L117.8 15.1H119.6V15.2Z" fill="#0A0012"/>
<path d="M127.1 24.6V23.3C126.7 23.9 126.2 24.3 125.6 24.5C125 24.7 124.4 24.9 123.6 24.9C122.7 24.9 121.9 24.6 121.3 24.1C120.7 23.6 120.4 22.9 120.4 22C120.4 21.4 120.5 20.9 120.8 20.4C121.1 20 121.5 19.6 122.1 19.3C122.5 19.1 123.1 18.9 123.7 18.8C124.3 18.7 125.1 18.6 126 18.4L126.8 18.3C126.8 17.8 126.5 17.3 126.2 17C125.8 16.7 125.3 16.6 124.7 16.6C123.6 16.6 122.8 17 122.1 17.7L121 16.5C122 15.4 123.3 14.9 124.8 14.9C125.3 14.9 125.8 15 126.2 15.2C126.7 15.4 127.1 15.6 127.4 15.9C128.2 16.6 128.6 17.6 128.6 18.9V24.6H127.1ZM126.8 21.1C126.8 20.8 126.9 20.4 126.9 19.8C125.9 20 124.9 20.1 124.1 20.3C123.6 20.4 123.2 20.6 122.8 20.9C122.5 21.2 122.3 21.5 122.3 21.9C122.3 22.3 122.5 22.7 122.8 23C123.1 23.3 123.5 23.4 124 23.4C124.6 23.4 125.1 23.3 125.5 23C125.9 22.8 126.3 22.4 126.5 22C126.7 21.7 126.8 21.4 126.8 21.1Z" fill="#0A0012"/>
<path d="M140 19.9C140 21.3 139.6 22.5 138.9 23.4C138.5 23.9 138 24.3 137.5 24.5C136.9 24.8 136.3 24.9 135.7 24.9C134.6 24.9 133.6 24.6 132.9 23.9V28.8H131V15.2H132.6V16.1C133 15.7 133.4 15.4 133.9 15.2C134.4 15 135 14.9 135.5 14.9C136.2 14.9 136.8 15 137.4 15.3C138 15.6 138.5 15.9 138.9 16.4C139.6 17.3 140 18.5 140 19.9ZM138 19.9C138 18.9 137.8 18.1 137.4 17.5C137 16.9 136.3 16.5 135.3 16.5C134.9 16.5 134.5 16.6 134.2 16.7C133.9 16.8 133.6 17.1 133.4 17.3C132.9 17.9 132.7 18.7 132.7 19.8C132.7 20.3 132.8 20.7 132.9 21.2C133 21.6 133.2 22 133.4 22.3C133.9 22.9 134.6 23.2 135.4 23.2C135.8 23.2 136.2 23.1 136.6 23C137 22.8 137.3 22.6 137.5 22.3C137.9 21.7 138 20.9 138 19.9Z" fill="#0A0012"/>
</g>
<defs>
<linearGradient id="paint0_linear_2443_261" x1="29.1793" y1="24.3967" x2="0.0596398" y2="26.9443" gradientUnits="userSpaceOnUse">
<stop offset="0.5307" stop-color="#BE7ED7"/>
<stop offset="1" stop-color="#9817D8"/>
</linearGradient>
<clipPath id="clip0_2443_261">
<rect width="140" height="40" fill="white"/>
</clipPath>
</defs>
</svg>
