<?xml version="1.0" encoding="utf-8"?>
<!-- Generator: Adobe Illustrator 25.1.0, SVG Export Plug-In . SVG Version: 6.00 Build 0)  -->
<svg version="1.1" id="Слой_1" xmlns="http://www.w3.org/2000/svg" xmlns:xlink="http://www.w3.org/1999/xlink" x="0px" y="0px"
	 viewBox="0 0 140 40" style="enable-background:new 0 0 140 40;" xml:space="preserve">
<style type="text/css">
	.st0{fill-rule:evenodd;clip-rule:evenodd;fill:url(#SVGID_1_);}
	.st1{fill-rule:evenodd;clip-rule:evenodd;fill:#680080;}
	.st2{fill-rule:evenodd;clip-rule:evenodd;fill:#BE7ED7;}
	.st3{fill:#FFFFFF;}
</style>
<g id="BS_logo.psd_1_">
	<g id="Группа_3_1_">
		<g id="Группа_4_1_">
			<linearGradient id="SVGID_1_" gradientUnits="userSpaceOnUse" x1="29.1793" y1="24.3967" x2="5.964075e-02" y2="26.9443">
				<stop  offset="0.5307" style="stop-color:#BE7ED7"/>
				<stop  offset="1" style="stop-color:#9817D8"/>
			</linearGradient>
			<path class="st0" d="M0,14.6h5.7c0,0,0,11.2,0,11.2c0.1,4.8,4,8.6,8.9,8.6c4.9,0,8.9-3.9,8.9-8.8c0-4.8-3.9-8.6-8.7-8.8
				c-0.1,0-0.2,0-0.2,0c-1.6,0-2.8-1.2-2.8-2.8c0-1.5,1.3-2.8,2.8-2.8c0,0,0.1,0,0.2,0c8,0.1,14.4,6.5,14.4,14.3
				c0,7.9-6.5,14.3-14.6,14.3C6.5,40,0,33.6,0,25.6C0,23.7,0,14.6,0,14.6z"/>
			<path class="st1" d="M0,14.8c0,0-0.1,5,2.1,8.5c2.3,3.7,4,4.6,4,4.6s-0.3-2-0.3-3.4C5.8,23.2,0,14.8,0,14.8z"/>
			<path class="st2" d="M28.1,19.9c0,0.1-0.1,0.2-0.1,0.2s-0.8-1.8-1.9-3.2c-1.1-1.5-2.6-2.5-2.6-2.5s0-0.1,0-0.1
				c-0.1-4.8-4-8.6-8.9-8.6c-4.9,0-8.9,3.9-8.9,8.8c0,4.8,3.9,8.6,8.7,8.8c0.1,0,0.2,0,0.2,0c1.6,0,2.8,1.2,2.8,2.8
				c0,1.5-1.3,2.8-2.8,2.8c0,0-0.1,0-0.2,0C6.4,28.6,0,22.2,0,14.3C0,6.4,6.5,0,14.6,0c8.1,0,14.6,6.4,14.6,14.3
				C29.2,16.3,28.8,18.2,28.1,19.9z"/>
			<path class="st1" d="M28,20.1c0,0-0.8-1.8-1.9-3.2c-1.1-1.5-2.6-2.5-2.6-2.5s0-0.1,0-0.1c0-0.8-0.1-1.5-0.3-2.2c0,0,0-0.1,0-0.1
				s2.1,2.2,3.1,4.1C27.9,19.2,28,20.1,28,20.1z"/>
		</g>
		<g>
			<path class="st3" d="M44.1,20.8c0,0.4-0.1,0.8-0.2,1.2c-0.1,0.4-0.3,0.8-0.6,1.1c-0.5,0.6-1.1,1-1.9,1.3c-0.5,0.1-1,0.2-1.5,0.2
				H35V12h4.7c0.6,0,1.1,0.1,1.4,0.2c0.7,0.2,1.3,0.6,1.8,1.2c0.2,0.3,0.4,0.6,0.6,1c0.1,0.4,0.2,0.8,0.2,1.2c0,0.3-0.1,0.7-0.2,1
				c-0.1,0.3-0.3,0.6-0.5,0.9c-0.1,0.1-0.2,0.2-0.3,0.4c0.3,0.2,0.6,0.5,0.9,0.9C43.9,19.3,44.1,20,44.1,20.8z M36.9,13.7v3.4H40
				c0.2,0,0.5-0.1,0.7-0.2c0.3-0.1,0.5-0.3,0.6-0.5c0.2-0.3,0.4-0.7,0.4-1.1c0-0.4-0.2-0.8-0.5-1.1c-0.2-0.2-0.3-0.3-0.6-0.4
				c-0.2-0.1-0.4-0.1-0.7-0.1H36.9z M41.8,19.6c-0.2-0.2-0.4-0.4-0.7-0.5c-0.3-0.1-0.5-0.2-0.8-0.2h-3.4v4h3c0.4,0,0.7,0,1-0.1
				c0.3-0.1,0.5-0.2,0.7-0.5c0.4-0.4,0.6-0.8,0.6-1.4C42.2,20.4,42.1,20,41.8,19.6z"/>
			<path class="st3" d="M52.1,24.6v-1.3c-0.4,0.6-0.9,1-1.5,1.2c-0.6,0.2-1.2,0.4-2,0.4c-0.9,0-1.7-0.3-2.3-0.8
				c-0.6-0.5-0.9-1.2-0.9-2.1c0-0.6,0.1-1.1,0.4-1.6c0.3-0.4,0.7-0.8,1.3-1.1c0.4-0.2,1-0.4,1.6-0.5c0.6-0.1,1.4-0.2,2.3-0.4
				l0.8-0.1c0-0.5-0.3-1-0.6-1.3c-0.4-0.3-0.9-0.4-1.5-0.4c-1.1,0-1.9,0.4-2.6,1.1L46,16.5c1-1.1,2.3-1.6,3.8-1.6
				c0.5,0,1,0.1,1.4,0.3c0.5,0.2,0.9,0.4,1.2,0.7c0.8,0.7,1.2,1.7,1.2,3v5.7H52.1z M51.8,21.1c0-0.3,0.1-0.7,0.1-1.3
				c-1,0.2-2,0.3-2.8,0.5c-0.5,0.1-0.9,0.3-1.3,0.6c-0.3,0.3-0.5,0.6-0.5,1c0,0.4,0.2,0.8,0.5,1.1c0.3,0.3,0.7,0.4,1.2,0.4
				c0.6,0,1.1-0.1,1.5-0.4c0.4-0.2,0.8-0.6,1-1C51.7,21.7,51.8,21.4,51.8,21.1z"/>
			<path class="st3" d="M69,17c0.1,0.5,0.2,1.1,0.2,1.8v5.8h-1.9l0-5.7c0-0.5,0-0.8-0.1-1.1c-0.1-0.3-0.2-0.5-0.5-0.8
				c-0.2-0.2-0.4-0.3-0.6-0.4c-0.2-0.1-0.5-0.1-0.7-0.1c-0.3,0-0.6,0.1-0.8,0.2c-0.3,0.1-0.5,0.3-0.7,0.5c-0.2,0.2-0.3,0.4-0.4,0.7
				c-0.1,0.2-0.1,0.5-0.1,0.8v0.1l0,5.8h-1.8v-5.7c0-0.5,0-0.8-0.1-1.1c-0.1-0.3-0.2-0.5-0.5-0.8c-0.2-0.2-0.4-0.3-0.6-0.4
				c-0.2-0.1-0.5-0.1-0.7-0.1c-0.3,0-0.6,0.1-0.8,0.2c-0.3,0.1-0.5,0.3-0.6,0.5c-0.2,0.2-0.3,0.4-0.4,0.7c-0.1,0.2-0.1,0.5-0.1,0.8
				v5.9H56v-9.4h1.6v1c0.3-0.4,0.7-0.7,1.2-0.9c0.5-0.2,1-0.3,1.5-0.3c0.4,0,0.8,0.1,1.2,0.2c0.4,0.1,0.7,0.3,1,0.6
				c0.2,0.2,0.4,0.4,0.6,0.8v0c0.3-0.5,0.7-0.9,1.2-1.1c0.5-0.3,1.1-0.4,1.6-0.4c0.4,0,0.8,0.1,1.2,0.2c0.4,0.1,0.7,0.3,1,0.6
				C68.7,16.1,68.9,16.5,69,17z"/>
			<path class="st3" d="M80.5,19.9c0,1.4-0.4,2.6-1.1,3.5c-0.4,0.5-0.9,0.9-1.4,1.1c-0.6,0.3-1.2,0.4-1.8,0.4
				c-0.6,0-1.2-0.1-1.7-0.3c-0.5-0.2-1-0.5-1.3-0.9v0.9h-1.6V12h1.8v3.8c0.4-0.3,0.8-0.5,1.3-0.7c0.5-0.2,1-0.3,1.5-0.3
				c0.7,0,1.3,0.1,1.9,0.4c0.6,0.3,1.1,0.6,1.5,1.1C80.2,17.3,80.5,18.5,80.5,19.9z M78.6,19.9c0-1-0.2-1.8-0.6-2.4
				c-0.4-0.6-1.1-1-2.1-1c-0.4,0-0.8,0.1-1.1,0.2c-0.3,0.1-0.6,0.4-0.8,0.6c-0.5,0.6-0.7,1.4-0.7,2.5c0,0.5,0.1,0.9,0.2,1.4
				c0.1,0.4,0.3,0.8,0.5,1.1c0.5,0.6,1.2,0.9,2,0.9c0.4,0,0.8-0.1,1.2-0.2c0.4-0.2,0.7-0.4,0.9-0.7C78.4,21.7,78.6,20.9,78.6,19.9z"
				/>
			<path class="st3" d="M88.5,24.6v-1.3c-0.4,0.6-0.9,1-1.5,1.2c-0.6,0.2-1.2,0.4-2,0.4c-0.9,0-1.7-0.3-2.3-0.8
				c-0.6-0.5-0.9-1.2-0.9-2.1c0-0.6,0.1-1.1,0.4-1.6c0.3-0.4,0.7-0.8,1.3-1.1c0.4-0.2,1-0.4,1.6-0.5c0.6-0.1,1.4-0.2,2.3-0.4
				l0.8-0.1c0-0.5-0.3-1-0.6-1.3c-0.4-0.3-0.9-0.4-1.5-0.4c-1.1,0-1.9,0.4-2.6,1.1l-1.1-1.2c1-1.1,2.3-1.6,3.8-1.6
				c0.5,0,1,0.1,1.4,0.3c0.5,0.2,0.9,0.4,1.2,0.7c0.8,0.7,1.2,1.7,1.2,3v5.7H88.5z M88.3,21.1c0-0.3,0.1-0.7,0.1-1.3
				c-1,0.2-2,0.3-2.8,0.5c-0.5,0.1-0.9,0.3-1.3,0.6c-0.3,0.3-0.5,0.6-0.5,1c0,0.4,0.2,0.8,0.5,1.1c0.3,0.3,0.7,0.4,1.2,0.4
				c0.6,0,1.1-0.1,1.5-0.4c0.4-0.2,0.8-0.6,1-1C88.1,21.7,88.2,21.4,88.3,21.1z"/>
			<path class="st3" d="M103.6,15.7c-0.2-0.4-0.4-0.7-0.6-1c-0.2-0.3-0.5-0.5-0.8-0.7c-0.5-0.3-1.1-0.5-1.7-0.5
				c-0.7,0-1.3,0.1-1.7,0.4c-0.3,0.2-0.5,0.3-0.6,0.6c-0.2,0.2-0.2,0.5-0.2,0.8c0,0.3,0.1,0.6,0.4,0.9c0.3,0.3,0.8,0.5,1.6,0.8
				l2.2,0.6c0.5,0.2,1,0.3,1.3,0.5c0.4,0.2,0.7,0.4,1,0.7c0.4,0.3,0.6,0.7,0.8,1.2c0.2,0.4,0.3,0.9,0.3,1.4c0,0.5-0.1,1.1-0.4,1.6
				c-0.3,0.5-0.7,0.9-1.1,1.2c-0.4,0.3-0.9,0.5-1.5,0.6c-0.6,0.1-1.2,0.2-1.9,0.2c-1.8,0-3.2-0.6-4.1-1.7c-0.5-0.6-0.8-1.4-1.1-2.4
				l1.9-0.5c0.1,0.7,0.4,1.3,0.7,1.7c0.3,0.4,0.7,0.7,1.1,0.9c0.5,0.2,1,0.3,1.5,0.3c0.4,0,0.8-0.1,1.2-0.2c0.4-0.1,0.7-0.3,1-0.4
				c0.4-0.3,0.7-0.8,0.7-1.4c0-0.4-0.2-0.8-0.5-1.1c-0.3-0.3-0.8-0.5-1.4-0.7l-2.3-0.7c-1.1-0.3-1.9-0.7-2.4-1.2
				c-0.3-0.3-0.6-0.6-0.8-1.1C96.1,16,96,15.6,96,15.2c0-0.6,0.2-1.2,0.5-1.7c0.4-0.5,0.8-0.9,1.4-1.2c0.7-0.3,1.6-0.5,2.6-0.5
				c1,0,1.9,0.2,2.6,0.6c1,0.6,1.8,1.5,2.3,2.8L103.6,15.7z"/>
			<path class="st3" d="M119.6,15.2l-2.9,9.4h-1.6l-2.1-6.8l-2.2,6.8h-1.5l-2.9-9.5l1.8,0l2,6.5l2-6.5h1.6l2,6.5l2-6.5H119.6z"/>
			<path class="st3" d="M127.1,24.6v-1.3c-0.4,0.6-0.9,1-1.5,1.2c-0.6,0.2-1.2,0.4-2,0.4c-0.9,0-1.7-0.3-2.3-0.8
				c-0.6-0.5-0.9-1.2-0.9-2.1c0-0.6,0.1-1.1,0.4-1.6c0.3-0.4,0.7-0.8,1.3-1.1c0.4-0.2,1-0.4,1.6-0.5c0.6-0.1,1.4-0.2,2.3-0.4
				l0.8-0.1c0-0.5-0.3-1-0.6-1.3c-0.4-0.3-0.9-0.4-1.5-0.4c-1.1,0-1.9,0.4-2.6,1.1l-1.1-1.2c1-1.1,2.3-1.6,3.8-1.6
				c0.5,0,1,0.1,1.4,0.3c0.5,0.2,0.9,0.4,1.2,0.7c0.8,0.7,1.2,1.7,1.2,3v5.7H127.1z M126.8,21.1c0-0.3,0.1-0.7,0.1-1.3
				c-1,0.2-2,0.3-2.8,0.5c-0.5,0.1-0.9,0.3-1.3,0.6c-0.3,0.3-0.5,0.6-0.5,1c0,0.4,0.2,0.8,0.5,1.1s0.7,0.4,1.2,0.4
				c0.6,0,1.1-0.1,1.5-0.4c0.4-0.2,0.8-0.6,1-1C126.7,21.7,126.8,21.4,126.8,21.1z"/>
			<path class="st3" d="M140,19.9c0,1.4-0.4,2.6-1.1,3.5c-0.4,0.5-0.9,0.9-1.4,1.1c-0.6,0.3-1.2,0.4-1.8,0.4c-1.1,0-2.1-0.3-2.8-1
				v4.9H131V15.2h1.6v0.9c0.4-0.4,0.8-0.7,1.3-0.9c0.5-0.2,1.1-0.3,1.6-0.3c0.7,0,1.3,0.1,1.9,0.4c0.6,0.3,1.1,0.6,1.5,1.1
				C139.6,17.3,140,18.5,140,19.9z M138,19.9c0-1-0.2-1.8-0.6-2.4c-0.4-0.6-1.1-1-2.1-1c-0.4,0-0.8,0.1-1.1,0.2
				c-0.3,0.1-0.6,0.4-0.8,0.6c-0.5,0.6-0.7,1.4-0.7,2.5c0,0.5,0.1,0.9,0.2,1.4c0.1,0.4,0.3,0.8,0.5,1.1c0.5,0.6,1.2,0.9,2,0.9
				c0.4,0,0.8-0.1,1.2-0.2c0.4-0.2,0.7-0.4,0.9-0.7C137.9,21.7,138,20.9,138,19.9z"/>
		</g>
	</g>
</g>
</svg>
