<svg width="340" height="315" viewBox="0 0 340 315" fill="none" xmlns="http://www.w3.org/2000/svg">
<path d="M143.079 36.8965C127.221 26.8053 104.959 34.8803 97.5587 39.6376C67.4288 83.5111 44.7593 120.943 6.70091 201.818C-20.2574 284.279 53.1566 315.564 81.7008 313.979C69.0146 306.049 62.6714 299.706 59.4999 287.02C55.1389 269.576 69.5432 242.618 73.7719 233.103C103.902 180.773 147.202 97.4739 157.351 92.3994C167.5 87.3249 179.491 89.7565 184.777 92.3995L170.037 63.855C166.337 59.0975 157.033 45.7769 143.079 36.8965Z" fill="url(#paint0_linear_2121_1166)"/>
<path d="M100.007 234.701C93.6643 232.163 87.321 217.786 85.7353 210.914C78.5372 222.014 72.194 228.358 60.3626 261.659C50.8481 291.789 70.6083 309.233 81.7088 313.99H245.899C261.757 313.99 288.716 313.99 317.26 288.617C354.477 255.536 336.289 198.228 329.946 190.299C328.36 220.429 306.159 228.358 291.887 233.115C280.47 236.921 241.671 237.872 223.698 237.872C184.582 237.872 106.351 237.238 100.007 234.701Z" fill="url(#paint1_linear_2121_1166)"/>
<path d="M173.68 0C132.45 -0.000655427 107.077 19.03 97.5625 39.6446L97.5641 39.6438C103.909 36.472 122.937 26.9599 141.964 38.0588C149.893 41.2304 164.165 58.674 170.509 68.1887C197.467 114.176 251.701 208.055 252.969 215.667C254.238 223.278 246.626 236.282 235.526 239.453C246.626 239.453 281.513 244.943 303.714 234.696C324.33 225.181 330.673 207.738 330.673 191.88L233.94 28.5441C227.597 19.0294 200.638 1.17162 173.68 0Z" fill="url(#paint2_linear_2121_1166)"/>
<path d="M117.12 293.771C116.61 293.771 116.176 293.606 115.819 293.274C115.488 292.917 115.322 292.484 115.322 291.974V265.697C115.322 265.162 115.488 264.728 115.819 264.397C116.176 264.065 116.61 263.899 117.12 263.899H124.043C126.236 263.899 128.224 264.269 130.009 265.009C131.82 265.723 133.388 266.755 134.714 268.107C136.04 269.433 137.06 271.001 137.774 272.811C138.513 274.622 138.883 276.623 138.883 278.816C138.883 281.009 138.513 283.024 137.774 284.86C137.06 286.67 136.04 288.251 134.714 289.602C133.388 290.928 131.82 291.961 130.009 292.701C128.224 293.415 126.236 293.771 124.043 293.771H117.12ZM118.917 290.559H124.043C126.261 290.559 128.212 290.061 129.895 289.067C131.603 288.047 132.942 286.657 133.911 284.898C134.905 283.113 135.402 281.086 135.402 278.816C135.402 276.521 134.905 274.494 133.911 272.735C132.942 270.975 131.603 269.598 129.895 268.604C128.212 267.609 126.261 267.112 124.043 267.112H118.917V290.559ZM146.889 293.771C146.379 293.771 145.946 293.606 145.589 293.274C145.257 292.917 145.092 292.484 145.092 291.974V265.697C145.092 265.162 145.257 264.728 145.589 264.397C145.946 264.065 146.379 263.899 146.889 263.899H164.445C164.955 263.899 165.376 264.065 165.708 264.397C166.039 264.703 166.205 265.111 166.205 265.621C166.205 266.08 166.039 266.475 165.708 266.806C165.376 267.112 164.955 267.265 164.445 267.265H148.687V277.057H160.047C160.582 277.057 161.003 277.223 161.309 277.554C161.64 277.86 161.806 278.255 161.806 278.74C161.806 279.224 161.64 279.632 161.309 279.964C161.003 280.27 160.582 280.423 160.047 280.423H148.687V290.406H164.445C164.955 290.406 165.376 290.571 165.708 290.903C166.039 291.209 166.205 291.591 166.205 292.05C166.205 292.56 166.039 292.981 165.708 293.313C165.376 293.619 164.955 293.771 164.445 293.771H146.889ZM173.52 293.771C173.036 293.771 172.615 293.606 172.258 293.274C171.927 292.917 171.761 292.484 171.761 291.974V265.697C171.761 265.187 171.927 264.766 172.258 264.435C172.615 264.078 173.036 263.899 173.52 263.899C174.03 263.899 174.451 264.078 174.783 264.435C175.14 264.766 175.318 265.187 175.318 265.697V290.253H189.623C190.108 290.253 190.528 290.418 190.885 290.75C191.242 291.081 191.421 291.502 191.421 292.012C191.421 292.497 191.242 292.917 190.885 293.274C190.528 293.606 190.108 293.771 189.623 293.771H173.52ZM199.98 293.771C199.496 293.771 199.075 293.606 198.718 293.274C198.361 292.917 198.183 292.484 198.183 291.974V263.899H201.778V291.974C201.778 292.484 201.612 292.917 201.281 293.274C200.949 293.606 200.516 293.771 199.98 293.771ZM189.615 267.189C189.131 267.189 188.735 267.036 188.429 266.73C188.123 266.424 187.97 266.029 187.97 265.544C187.97 265.06 188.123 264.664 188.429 264.358C188.735 264.052 189.131 263.899 189.615 263.899H210.346C210.856 263.899 211.264 264.052 211.57 264.358C211.876 264.664 212.029 265.06 212.029 265.544C212.029 266.029 211.876 266.424 211.57 266.73C211.264 267.036 210.856 267.189 210.346 267.189H189.615ZM211.994 293.771C211.331 293.771 210.834 293.491 210.503 292.93C210.171 292.369 210.146 291.783 210.426 291.171L221.365 265.123C221.697 264.307 222.258 263.899 223.048 263.899C223.89 263.899 224.463 264.307 224.769 265.123L235.747 291.247C236.002 291.859 235.951 292.433 235.594 292.968C235.262 293.504 234.765 293.771 234.102 293.771C233.771 293.771 233.452 293.682 233.146 293.504C232.84 293.3 232.61 293.019 232.457 292.662L222.551 268.336H223.66L213.677 292.662C213.524 293.045 213.295 293.325 212.989 293.504C212.683 293.682 212.351 293.771 211.994 293.771ZM214.213 287.001L215.628 283.98H230.813L232.19 287.001H214.213Z" fill="white"/>
<path d="M75.9872 186.371C75.7177 186.804 75.348 187.084 74.8779 187.212C74.3997 187.305 73.9441 187.217 73.5111 186.947L51.2012 173.064C50.7682 172.795 50.4986 172.432 50.3923 171.975C50.2778 171.484 50.3553 171.021 50.6247 170.588L54.6663 164.093C55.6768 162.47 56.9231 161.263 58.4055 160.474C59.9013 159.662 61.4926 159.301 63.1794 159.39C64.8445 159.465 66.4998 160.014 68.1451 161.038C69.7256 162.022 70.9172 163.244 71.7201 164.705C72.5231 166.165 72.8802 167.739 72.7916 169.426C72.7165 171.091 72.1737 172.735 71.1633 174.359L68.0715 179.328L75.4107 183.895C75.8436 184.164 76.1241 184.534 76.2521 185.004C76.3584 185.461 76.2701 185.916 75.9872 186.371ZM65.2137 177.549L68.3056 172.581C68.9522 171.542 69.2975 170.48 69.3413 169.396C69.3851 168.312 69.148 167.294 68.6299 166.341C68.1118 165.387 67.3439 164.594 66.3264 163.961C65.2439 163.287 64.1499 162.922 63.0443 162.865C61.9387 162.807 60.9093 163.038 59.9562 163.556C58.9815 164.061 58.1707 164.832 57.5241 165.872L54.4322 170.84L65.2137 177.549ZM86.2098 169.943C85.8596 170.506 85.3587 170.78 84.7073 170.765C84.0559 170.75 83.5444 170.462 83.1731 169.9L66.8376 146.851C66.3199 146.138 66.2699 145.447 66.6876 144.775C67.1321 144.061 67.7817 143.789 68.6361 143.961L96.6159 148.443C97.2702 148.55 97.7303 148.896 97.9964 149.482C98.2759 150.046 98.2405 150.61 97.8902 151.173C97.7151 151.454 97.4709 151.678 97.1577 151.843C96.8228 151.995 96.4634 152.042 96.0795 151.983L70.1919 147.542L70.7779 146.6L86.1573 167.928C86.4012 168.26 86.5181 168.603 86.5079 168.957C86.4978 169.311 86.3985 169.64 86.2098 169.943ZM81.634 164.483L79.8162 161.685L87.8389 148.792L91.1318 149.22L81.634 164.483ZM104.176 141.072C103.92 141.483 103.557 141.753 103.087 141.881C102.609 141.974 102.153 141.885 101.72 141.616L93.9262 136.766L74.8185 136.994C74.2671 137.011 73.8276 136.873 73.5 136.579C73.1724 136.285 72.9811 135.941 72.9263 135.546C72.8633 135.117 72.9531 134.707 73.1956 134.317C73.3976 133.992 73.6351 133.78 73.9079 133.679C74.159 133.565 74.4684 133.502 74.836 133.491L93.567 133.434L92.7384 134.765L84.4912 117.83C84.3608 117.509 84.298 117.2 84.3029 116.902C84.3077 116.605 84.4044 116.305 84.593 116.002C84.822 115.634 85.1405 115.411 85.5485 115.335C85.9349 115.245 86.3255 115.293 86.7205 115.478C87.0939 115.651 87.3904 115.97 87.6103 116.438L95.8056 133.746L103.599 138.596C104.032 138.865 104.306 139.246 104.421 139.738C104.527 140.194 104.445 140.639 104.176 141.072Z" fill="white"/>
<path d="M197.972 72.4515C197.716 72.0105 197.641 71.5524 197.749 71.0772C197.891 70.6113 198.182 70.2502 198.623 69.994L221.344 56.7949C221.785 56.5387 222.232 56.4707 222.686 56.5908C223.174 56.7202 223.546 57.0054 223.802 57.4463L227.644 64.0609C228.605 65.7146 229.087 67.3811 229.089 69.0606C229.104 70.7621 228.678 72.3371 227.809 73.7855C226.962 75.2212 225.7 76.4257 224.025 77.3992C222.415 78.3342 220.777 78.814 219.11 78.8385C217.444 78.863 215.886 78.4408 214.438 77.5718C213.002 76.7249 211.804 75.4747 210.843 73.821L207.904 68.7608L200.429 73.1029C199.988 73.3591 199.53 73.4335 199.055 73.3262C198.602 73.2061 198.241 72.9145 197.972 72.4515ZM210.814 67.0701L213.754 72.1303C214.369 73.1886 215.144 73.9912 216.081 74.538C217.018 75.0849 218.029 75.3528 219.114 75.3419C220.199 75.331 221.259 75.0246 222.296 74.4226C223.398 73.7822 224.234 72.9871 224.802 72.0373C225.371 71.0876 225.65 70.0703 225.639 68.9855C225.651 67.888 225.349 66.81 224.734 65.7517L221.794 60.6915L210.814 67.0701ZM209.848 92.8953C209.605 92.4763 209.537 92.0293 209.644 91.5541C209.786 91.0881 210.078 90.7271 210.519 90.4709L233.24 77.2718C233.681 77.0156 234.128 76.9476 234.581 77.0677C235.069 77.1971 235.435 77.4712 235.678 77.8901C235.934 78.3311 235.991 78.7846 235.849 79.2505C235.742 79.7257 235.468 80.0914 235.027 80.3476L213.794 92.6821L220.979 105.051C221.223 105.47 221.291 105.917 221.183 106.393C221.076 106.868 220.802 107.234 220.361 107.49C219.942 107.733 219.489 107.79 219.001 107.661C218.535 107.519 218.18 107.238 217.937 106.819L209.848 92.8953ZM226.873 123.421C225.669 121.348 224.985 119.283 224.822 117.225C224.694 115.176 225.05 113.303 225.892 111.605C226.756 109.894 228.07 108.526 229.834 107.501L245.51 98.3946C245.951 98.1384 246.398 98.0704 246.852 98.1905C247.34 98.3199 247.712 98.605 247.968 99.046C248.237 99.509 248.3 99.9735 248.158 100.439C248.038 100.893 247.757 101.247 247.316 101.503L231.64 110.61C230.405 111.328 229.499 112.281 228.923 113.471C228.368 114.649 228.142 115.96 228.244 117.405C228.381 118.859 228.872 120.313 229.717 121.768C230.537 123.179 231.532 124.282 232.701 125.078C233.893 125.86 235.131 126.291 236.416 126.37C237.735 126.459 239.012 126.144 240.247 125.427L255.924 116.32C256.365 116.064 256.812 115.996 257.265 116.116C257.753 116.245 258.125 116.531 258.381 116.972C258.65 117.435 258.707 117.888 258.552 118.332C258.432 118.785 258.152 119.14 257.711 119.396L242.034 128.503C240.27 129.527 238.437 130.002 236.536 129.927C234.657 129.839 232.865 129.243 231.162 128.139C229.481 127.022 228.051 125.449 226.873 123.421ZM243.67 151.879C242.633 150.093 241.99 148.225 241.742 146.276C241.529 144.335 241.69 142.428 242.223 140.555C242.77 138.704 243.656 136.981 244.881 135.384C246.107 133.788 247.645 132.451 249.497 131.376C251.327 130.312 253.222 129.64 255.181 129.357C257.175 129.083 259.117 129.178 261.009 129.643C262.9 130.107 264.636 130.912 266.216 132.058C267.796 133.205 269.112 134.682 270.162 136.49C271.123 138.143 271.736 139.733 272.004 141.259C272.293 142.772 272.289 144.44 271.992 146.264C271.962 146.517 271.878 146.728 271.74 146.897C271.637 147.075 271.491 147.204 271.302 147.284C271.147 147.374 270.974 147.431 270.781 147.454C270.437 147.624 270.079 147.641 269.704 147.504C269.365 147.377 269.093 147.137 268.888 146.784C268.683 146.432 268.612 146.03 268.675 145.581C268.916 144.32 268.955 143.118 268.792 141.974C268.629 140.831 268.137 139.553 267.318 138.142C266.536 136.797 265.524 135.689 264.281 134.819C263.051 133.971 261.7 133.37 260.226 133.017C258.753 132.663 257.241 132.598 255.69 132.821C254.138 133.044 252.657 133.565 251.246 134.385C249.791 135.231 248.582 136.272 247.62 137.509C246.68 138.733 245.987 140.079 245.542 141.547C245.119 143.002 244.982 144.467 245.132 145.943C245.295 147.441 245.766 148.863 246.548 150.208C247.227 151.376 248.055 152.37 249.031 153.188C250.03 153.994 251.151 154.655 252.395 155.171C252.864 155.37 253.18 155.659 253.34 156.037C253.523 156.403 253.553 156.784 253.429 157.18C253.328 157.564 253.056 157.883 252.615 158.14C252.417 158.255 252.199 158.337 251.962 158.386C251.76 158.445 251.525 158.419 251.255 158.311C249.575 157.753 248.1 156.914 246.83 155.794C245.594 154.684 244.541 153.378 243.67 151.879ZM252.615 158.14L251.515 154.798L257.699 151.205L254.913 146.41C254.657 145.969 254.572 145.517 254.657 145.055C254.755 144.614 255.003 144.279 255.399 144.048C255.796 143.818 256.199 143.775 256.608 143.921C257.052 144.076 257.402 144.374 257.658 144.815L261.29 151.066C261.559 151.529 261.627 151.976 261.494 152.407C261.374 152.86 261.093 153.215 260.652 153.471L252.615 158.14ZM253.058 167.278C252.802 166.837 252.728 166.379 252.835 165.904C252.977 165.438 253.269 165.077 253.71 164.821L276.431 151.622C276.894 151.353 277.352 151.278 277.805 151.398C278.271 151.54 278.632 151.832 278.888 152.273C279.157 152.736 279.232 153.194 279.112 153.647C278.992 154.1 278.7 154.461 278.237 154.73L255.516 167.93C255.075 168.186 254.617 168.26 254.142 168.153C253.688 168.033 253.327 167.741 253.058 167.278ZM258.687 176.967C258.43 176.526 258.362 176.079 258.483 175.626C258.625 175.16 258.916 174.799 259.357 174.542L282.078 161.343C282.541 161.074 283 161 283.453 161.12C283.906 161.24 284.261 161.521 284.517 161.962C284.798 162.447 284.848 162.963 284.665 163.512L273.539 189.969L292.357 179.037C292.82 178.768 293.278 178.694 293.732 178.814C294.197 178.956 294.559 179.248 294.815 179.689C295.071 180.13 295.139 180.577 295.019 181.03C294.899 181.483 294.607 181.844 294.144 182.113L271.423 195.312C270.982 195.568 270.524 195.643 270.049 195.536C269.595 195.415 269.241 195.135 268.985 194.694C268.857 194.473 268.773 194.227 268.733 193.956C268.693 193.684 268.723 193.431 268.822 193.196L279.93 166.705L261.144 177.618C260.703 177.874 260.245 177.949 259.77 177.841C259.317 177.721 258.956 177.43 258.687 176.967Z" fill="white"/>
<defs>
<linearGradient id="paint0_linear_2121_1166" x1="42.0562" y1="260.062" x2="65.1716" y2="81.5242" gradientUnits="userSpaceOnUse">
<stop stop-color="#105BBA"/>
<stop offset="0.426036" stop-color="#0F6BE1"/>
<stop offset="1" stop-color="#193963"/>
</linearGradient>
<linearGradient id="paint1_linear_2121_1166" x1="97.5666" y1="282.274" x2="221.699" y2="383.177" gradientUnits="userSpaceOnUse">
<stop stop-color="#1A3A64"/>
<stop offset="0.470624" stop-color="#0F6BE1"/>
<stop offset="1" stop-color="#0F59B6"/>
</linearGradient>
<linearGradient id="paint2_linear_2121_1166" x1="175.862" y1="23.6738" x2="275.933" y2="207.341" gradientUnits="userSpaceOnUse">
<stop stop-color="#0E56B1"/>
<stop offset="0.470624" stop-color="#0F6BE1"/>
<stop offset="1" stop-color="#193963"/>
</linearGradient>
</defs>
</svg>
