<svg width="173" height="38" viewBox="0 0 173 38" fill="none" xmlns="http://www.w3.org/2000/svg">
<rect width="38" height="38" rx="8" fill="url(#paint0_linear_2022_3985)"/>
<path d="M12.3551 26L14.7699 11.4545H20.5938C21.6638 11.4545 22.5303 11.6132 23.1932 11.9304C23.8608 12.2476 24.3272 12.688 24.5923 13.2514C24.8575 13.8101 24.9285 14.4541 24.8054 15.1832C24.706 15.7514 24.5047 16.2486 24.2017 16.6747C23.9034 17.1009 23.5341 17.4512 23.0938 17.7259C22.6534 18.0005 22.1752 18.1946 21.6591 18.3082L21.6307 18.4503C22.1799 18.474 22.6747 18.6302 23.1151 18.919C23.5554 19.2031 23.8845 19.6056 24.1023 20.1264C24.3201 20.6473 24.3698 21.2652 24.2514 21.9801C24.1236 22.7519 23.8182 23.4408 23.3352 24.0469C22.8523 24.6482 22.2083 25.1241 21.4034 25.4744C20.6032 25.8248 19.6586 26 18.5696 26H12.3551ZM15.8565 23.4858H18.3636C19.2159 23.4858 19.867 23.3201 20.3168 22.9886C20.7666 22.6572 21.0365 22.2192 21.1264 21.6747C21.188 21.2723 21.1477 20.9171 21.0057 20.6094C20.8684 20.3016 20.634 20.0601 20.3026 19.8849C19.9759 19.7098 19.5616 19.6222 19.0597 19.6222H16.4886L15.8565 23.4858ZM16.8438 17.5412H19.1236C19.5402 17.5412 19.9261 17.4678 20.2812 17.321C20.6411 17.1695 20.937 16.9564 21.169 16.6818C21.4058 16.4025 21.5549 16.0734 21.6165 15.6946C21.7017 15.1643 21.5833 14.7405 21.2614 14.4233C20.9441 14.1013 20.447 13.9403 19.7699 13.9403H17.4403L16.8438 17.5412Z" fill="white"/>
<path d="M51.4 27V12.6H57.11C58.0833 12.6 58.88 12.7967 59.5 13.19C60.1267 13.5767 60.59 14.0733 60.89 14.68C61.1967 15.2867 61.35 15.9133 61.35 16.56C61.35 17.3533 61.16 18.0267 60.78 18.58C60.4067 19.1333 59.8967 19.5067 59.25 19.7V19.2C60.1567 19.4067 60.8433 19.8367 61.31 20.49C61.7833 21.1433 62.02 21.8867 62.02 22.72C62.02 23.5733 61.8567 24.32 61.53 24.96C61.2033 25.6 60.7167 26.1 60.07 26.46C59.43 26.82 58.6367 27 57.69 27H51.4ZM53.84 24.73H57.39C57.81 24.73 58.1867 24.6467 58.52 24.48C58.8533 24.3067 59.1133 24.0667 59.3 23.76C59.4933 23.4467 59.59 23.0767 59.59 22.65C59.59 22.2633 59.5067 21.9167 59.34 21.61C59.1733 21.3033 58.93 21.06 58.61 20.88C58.29 20.6933 57.9067 20.6 57.46 20.6H53.84V24.73ZM53.84 18.35H57.08C57.4267 18.35 57.7367 18.2833 58.01 18.15C58.2833 18.0167 58.5 17.82 58.66 17.56C58.82 17.3 58.9 16.98 58.9 16.6C58.9 16.1 58.74 15.6833 58.42 15.35C58.1 15.0167 57.6533 14.85 57.08 14.85H53.84V18.35ZM67.0372 27.3C66.2572 27.3 65.5972 27.1533 65.0572 26.86C64.5172 26.56 64.1072 26.1633 63.8272 25.67C63.5539 25.1767 63.4172 24.6333 63.4172 24.04C63.4172 23.52 63.5039 23.0533 63.6772 22.64C63.8505 22.22 64.1172 21.86 64.4772 21.56C64.8372 21.2533 65.3039 21.0033 65.8772 20.81C66.3105 20.67 66.8172 20.5433 67.3972 20.43C67.9839 20.3167 68.6172 20.2133 69.2972 20.12C69.9839 20.02 70.7005 19.9133 71.4472 19.8L70.5872 20.29C70.5939 19.5433 70.4272 18.9933 70.0872 18.64C69.7472 18.2867 69.1739 18.11 68.3672 18.11C67.8805 18.11 67.4105 18.2233 66.9572 18.45C66.5039 18.6767 66.1872 19.0667 66.0072 19.62L63.8072 18.93C64.0739 18.0167 64.5805 17.2833 65.3272 16.73C66.0805 16.1767 67.0939 15.9 68.3672 15.9C69.3272 15.9 70.1705 16.0567 70.8972 16.37C71.6305 16.6833 72.1739 17.1967 72.5272 17.91C72.7205 18.29 72.8372 18.68 72.8772 19.08C72.9172 19.4733 72.9372 19.9033 72.9372 20.37V27H70.8272V24.66L71.1772 25.04C70.6905 25.82 70.1205 26.3933 69.4672 26.76C68.8205 27.12 68.0105 27.3 67.0372 27.3ZM67.5172 25.38C68.0639 25.38 68.5305 25.2833 68.9172 25.09C69.3039 24.8967 69.6105 24.66 69.8372 24.38C70.0705 24.1 70.2272 23.8367 70.3072 23.59C70.4339 23.2833 70.5039 22.9333 70.5172 22.54C70.5372 22.14 70.5472 21.8167 70.5472 21.57L71.2872 21.79C70.5605 21.9033 69.9372 22.0033 69.4172 22.09C68.8972 22.1767 68.4505 22.26 68.0772 22.34C67.7039 22.4133 67.3739 22.4967 67.0872 22.59C66.8072 22.69 66.5705 22.8067 66.3772 22.94C66.1839 23.0733 66.0339 23.2267 65.9272 23.4C65.8272 23.5733 65.7772 23.7767 65.7772 24.01C65.7772 24.2767 65.8439 24.5133 65.9772 24.72C66.1105 24.92 66.3039 25.08 66.5572 25.2C66.8172 25.32 67.1372 25.38 67.5172 25.38ZM88.5106 27V20.44C88.5106 19.7 88.3273 19.1233 87.9606 18.71C87.594 18.29 87.0973 18.08 86.4706 18.08C86.084 18.08 85.7373 18.17 85.4306 18.35C85.124 18.5233 84.8806 18.7833 84.7006 19.13C84.5206 19.47 84.4306 19.8767 84.4306 20.35L83.3606 19.72C83.354 18.9733 83.5206 18.3167 83.8606 17.75C84.2073 17.1767 84.674 16.73 85.2606 16.41C85.8473 16.09 86.5006 15.93 87.2206 15.93C88.414 15.93 89.3273 16.29 89.9606 17.01C90.6006 17.7233 90.9206 18.6633 90.9206 19.83V27H88.5106ZM75.5206 27V16.2H77.6506V19.55H77.9506V27H75.5206ZM82.0306 27V20.47C82.0306 19.7167 81.8473 19.13 81.4806 18.71C81.114 18.29 80.614 18.08 79.9806 18.08C79.3673 18.08 78.874 18.29 78.5006 18.71C78.134 19.13 77.9506 19.6767 77.9506 20.35L76.8706 19.63C76.8706 18.93 77.044 18.3 77.3906 17.74C77.7373 17.18 78.204 16.74 78.7906 16.42C79.384 16.0933 80.0473 15.93 80.7806 15.93C81.5873 15.93 82.2606 16.1033 82.8006 16.45C83.3473 16.79 83.754 17.2567 84.0206 17.85C84.294 18.4367 84.4306 19.1 84.4306 19.84V27H82.0306ZM98.7189 27.3C97.6656 27.3 96.7822 27.05 96.0689 26.55C95.3556 26.05 94.8189 25.37 94.4589 24.51C94.0989 23.6433 93.9189 22.6733 93.9189 21.6C93.9189 20.5133 94.0989 19.54 94.4589 18.68C94.8189 17.82 95.3456 17.1433 96.0389 16.65C96.7389 16.15 97.6022 15.9 98.6289 15.9C99.6489 15.9 100.532 16.15 101.279 16.65C102.032 17.1433 102.616 17.82 103.029 18.68C103.442 19.5333 103.649 20.5067 103.649 21.6C103.649 22.68 103.446 23.65 103.039 24.51C102.632 25.37 102.059 26.05 101.319 26.55C100.579 27.05 99.7122 27.3 98.7189 27.3ZM93.5089 27V12.6H95.9389V19.42H95.6389V27H93.5089ZM98.3489 25.14C98.9756 25.14 99.4922 24.9833 99.8989 24.67C100.306 24.3567 100.606 23.9333 100.799 23.4C100.999 22.86 101.099 22.26 101.099 21.6C101.099 20.9467 100.999 20.3533 100.799 19.82C100.599 19.28 100.289 18.8533 99.8689 18.54C99.4489 18.22 98.9156 18.06 98.2689 18.06C97.6556 18.06 97.1556 18.21 96.7689 18.51C96.3822 18.8033 96.0956 19.2167 95.9089 19.75C95.7289 20.2767 95.6389 20.8933 95.6389 21.6C95.6389 22.3 95.7289 22.9167 95.9089 23.45C96.0956 23.9833 96.3856 24.4 96.7789 24.7C97.1789 24.9933 97.7022 25.14 98.3489 25.14ZM108.873 27.3C108.093 27.3 107.433 27.1533 106.893 26.86C106.353 26.56 105.943 26.1633 105.663 25.67C105.39 25.1767 105.253 24.6333 105.253 24.04C105.253 23.52 105.34 23.0533 105.513 22.64C105.686 22.22 105.953 21.86 106.313 21.56C106.673 21.2533 107.14 21.0033 107.713 20.81C108.146 20.67 108.653 20.5433 109.233 20.43C109.82 20.3167 110.453 20.2133 111.133 20.12C111.82 20.02 112.536 19.9133 113.283 19.8L112.423 20.29C112.43 19.5433 112.263 18.9933 111.923 18.64C111.583 18.2867 111.01 18.11 110.203 18.11C109.716 18.11 109.246 18.2233 108.793 18.45C108.34 18.6767 108.023 19.0667 107.843 19.62L105.643 18.93C105.91 18.0167 106.416 17.2833 107.163 16.73C107.916 16.1767 108.93 15.9 110.203 15.9C111.163 15.9 112.006 16.0567 112.733 16.37C113.466 16.6833 114.01 17.1967 114.363 17.91C114.556 18.29 114.673 18.68 114.713 19.08C114.753 19.4733 114.773 19.9033 114.773 20.37V27H112.663V24.66L113.013 25.04C112.526 25.82 111.956 26.3933 111.303 26.76C110.656 27.12 109.846 27.3 108.873 27.3ZM109.353 25.38C109.9 25.38 110.366 25.2833 110.753 25.09C111.14 24.8967 111.446 24.66 111.673 24.38C111.906 24.1 112.063 23.8367 112.143 23.59C112.27 23.2833 112.34 22.9333 112.353 22.54C112.373 22.14 112.383 21.8167 112.383 21.57L113.123 21.79C112.396 21.9033 111.773 22.0033 111.253 22.09C110.733 22.1767 110.286 22.26 109.913 22.34C109.54 22.4133 109.21 22.4967 108.923 22.59C108.643 22.69 108.406 22.8067 108.213 22.94C108.02 23.0733 107.87 23.2267 107.763 23.4C107.663 23.5733 107.613 23.7767 107.613 24.01C107.613 24.2767 107.68 24.5133 107.813 24.72C107.946 24.92 108.14 25.08 108.393 25.2C108.653 25.32 108.973 25.38 109.353 25.38ZM126.71 27.3C125.657 27.3 124.707 27.1167 123.86 26.75C123.02 26.3833 122.327 25.86 121.78 25.18C121.24 24.4933 120.897 23.68 120.75 22.74L123.25 22.36C123.464 23.2133 123.9 23.8733 124.56 24.34C125.227 24.8067 125.994 25.04 126.86 25.04C127.374 25.04 127.857 24.96 128.31 24.8C128.764 24.64 129.13 24.4067 129.41 24.1C129.697 23.7933 129.84 23.4167 129.84 22.97C129.84 22.77 129.807 22.5867 129.74 22.42C129.674 22.2467 129.574 22.0933 129.44 21.96C129.314 21.8267 129.147 21.7067 128.94 21.6C128.74 21.4867 128.507 21.39 128.24 21.31L124.52 20.21C124.2 20.1167 123.854 19.9933 123.48 19.84C123.114 19.68 122.764 19.4633 122.43 19.19C122.104 18.91 121.834 18.5567 121.62 18.13C121.414 17.6967 121.31 17.1633 121.31 16.53C121.31 15.6033 121.544 14.8267 122.01 14.2C122.484 13.5667 123.117 13.0933 123.91 12.78C124.71 12.4667 125.597 12.3133 126.57 12.32C127.557 12.3267 128.437 12.4967 129.21 12.83C129.984 13.1567 130.63 13.6333 131.15 14.26C131.67 14.8867 132.037 15.6433 132.25 16.53L129.66 16.98C129.554 16.4733 129.347 16.0433 129.04 15.69C128.74 15.33 128.37 15.0567 127.93 14.87C127.497 14.6833 127.034 14.5833 126.54 14.57C126.06 14.5633 125.614 14.6367 125.2 14.79C124.794 14.9367 124.464 15.15 124.21 15.43C123.964 15.71 123.84 16.0367 123.84 16.41C123.84 16.7633 123.947 17.0533 124.16 17.28C124.374 17.5 124.637 17.6767 124.95 17.81C125.27 17.9367 125.594 18.0433 125.92 18.13L128.5 18.85C128.854 18.9433 129.25 19.07 129.69 19.23C130.13 19.39 130.554 19.6133 130.96 19.9C131.367 20.1867 131.7 20.5633 131.96 21.03C132.227 21.4967 132.36 22.09 132.36 22.81C132.36 23.5567 132.204 24.2133 131.89 24.78C131.584 25.34 131.167 25.8067 130.64 26.18C130.114 26.5533 129.51 26.8333 128.83 27.02C128.157 27.2067 127.45 27.3 126.71 27.3ZM136.825 27L133.525 16.18L135.885 16.2L137.995 23.13L140.135 16.2H142.165L144.295 23.13L146.415 16.2H148.775L145.475 27H143.595L141.145 19.57L138.705 27H136.825ZM152.994 27.3C152.214 27.3 151.554 27.1533 151.014 26.86C150.474 26.56 150.064 26.1633 149.784 25.67C149.511 25.1767 149.374 24.6333 149.374 24.04C149.374 23.52 149.461 23.0533 149.634 22.64C149.808 22.22 150.074 21.86 150.434 21.56C150.794 21.2533 151.261 21.0033 151.834 20.81C152.268 20.67 152.774 20.5433 153.354 20.43C153.941 20.3167 154.574 20.2133 155.254 20.12C155.941 20.02 156.658 19.9133 157.404 19.8L156.544 20.29C156.551 19.5433 156.384 18.9933 156.044 18.64C155.704 18.2867 155.131 18.11 154.324 18.11C153.838 18.11 153.368 18.2233 152.914 18.45C152.461 18.6767 152.144 19.0667 151.964 19.62L149.764 18.93C150.031 18.0167 150.538 17.2833 151.284 16.73C152.038 16.1767 153.051 15.9 154.324 15.9C155.284 15.9 156.128 16.0567 156.854 16.37C157.588 16.6833 158.131 17.1967 158.484 17.91C158.678 18.29 158.794 18.68 158.834 19.08C158.874 19.4733 158.894 19.9033 158.894 20.37V27H156.784V24.66L157.134 25.04C156.648 25.82 156.078 26.3933 155.424 26.76C154.778 27.12 153.968 27.3 152.994 27.3ZM153.474 25.38C154.021 25.38 154.488 25.2833 154.874 25.09C155.261 24.8967 155.568 24.66 155.794 24.38C156.028 24.1 156.184 23.8367 156.264 23.59C156.391 23.2833 156.461 22.9333 156.474 22.54C156.494 22.14 156.504 21.8167 156.504 21.57L157.244 21.79C156.518 21.9033 155.894 22.0033 155.374 22.09C154.854 22.1767 154.408 22.26 154.034 22.34C153.661 22.4133 153.331 22.4967 153.044 22.59C152.764 22.69 152.528 22.8067 152.334 22.94C152.141 23.0733 151.991 23.2267 151.884 23.4C151.784 23.5733 151.734 23.7767 151.734 24.01C151.734 24.2767 151.801 24.5133 151.934 24.72C152.068 24.92 152.261 25.08 152.514 25.2C152.774 25.32 153.094 25.38 153.474 25.38ZM166.688 27.3C165.634 27.3 164.751 27.05 164.038 26.55C163.324 26.05 162.788 25.37 162.428 24.51C162.068 23.6433 161.888 22.6733 161.888 21.6C161.888 20.5133 162.068 19.54 162.428 18.68C162.788 17.82 163.314 17.1433 164.008 16.65C164.708 16.15 165.571 15.9 166.598 15.9C167.618 15.9 168.501 16.15 169.248 16.65C170.001 17.1433 170.584 17.82 170.998 18.68C171.411 19.5333 171.618 20.5067 171.618 21.6C171.618 22.68 171.414 23.65 171.008 24.51C170.601 25.37 170.028 26.05 169.288 26.55C168.548 27.05 167.681 27.3 166.688 27.3ZM161.478 31.8V16.2H163.608V23.78H163.908V31.8H161.478ZM166.318 25.14C166.944 25.14 167.461 24.9833 167.868 24.67C168.274 24.3567 168.574 23.9333 168.768 23.4C168.968 22.86 169.068 22.26 169.068 21.6C169.068 20.9467 168.968 20.3533 168.768 19.82C168.568 19.28 168.258 18.8533 167.838 18.54C167.418 18.22 166.884 18.06 166.238 18.06C165.624 18.06 165.124 18.21 164.738 18.51C164.351 18.8033 164.064 19.2167 163.878 19.75C163.698 20.2767 163.608 20.8933 163.608 21.6C163.608 22.3 163.698 22.9167 163.878 23.45C164.064 23.9833 164.354 24.4 164.748 24.7C165.148 24.9933 165.671 25.14 166.318 25.14Z" fill="white"/>
<defs>
<linearGradient id="paint0_linear_2022_3985" x1="-1.29405e-07" y1="34" x2="36" y2="4.5" gradientUnits="userSpaceOnUse">
<stop stop-color="#D3CED5"/>
<stop offset="1" stop-color="#882ED2"/>
</linearGradient>
</defs>
</svg>
