<svg width="30" height="26" viewBox="0 0 30 26" fill="none" xmlns="http://www.w3.org/2000/svg">
<g clip-path="url(#clip0_2088_2090)">
<path fill-rule="evenodd" clip-rule="evenodd" d="M5.49303 0.126863L0.0229769 11.5006C0.00216177 11.5429 -0.00443441 11.5907 0.00415298 11.637C0.0127404 11.6833 0.0360608 11.7256 0.070704 11.7579L14.844 25.7712C14.886 25.8111 14.9419 25.8333 15 25.8333C15.0581 25.8333 15.114 25.8111 15.156 25.7712L29.9293 11.7587C29.9639 11.7265 29.9873 11.6842 29.9958 11.6379C30.0044 11.5916 29.9978 11.5438 29.977 11.5015L24.507 0.127738C24.4893 0.0895399 24.4609 0.0571814 24.4252 0.0345297C24.3895 0.0118779 24.3479 -0.00010896 24.3055 1.67271e-06H5.69631C5.65368 -0.000523413 5.6118 0.0111747 5.57573 0.0336849C5.53966 0.0561951 5.51093 0.0885556 5.49303 0.126863Z" fill="#50AF95"/>
<path fill-rule="evenodd" clip-rule="evenodd" d="M16.8983 12.6686C16.7922 12.6765 16.2442 12.7089 15.0219 12.7089C14.0497 12.7089 13.3594 12.68 13.1172 12.6686C9.36005 12.505 6.55564 11.8576 6.55564 11.0824C6.55564 10.3073 9.36005 9.66071 13.1172 9.49447V12.0238C13.3629 12.0413 14.0665 12.0824 15.0387 12.0824C16.2053 12.0824 16.7896 12.0343 16.8947 12.0247V9.49622C20.644 9.66158 23.4422 10.309 23.4422 11.0824C23.4422 11.8558 20.6448 12.5033 16.8947 12.6678L16.8983 12.6686ZM16.8983 9.23463V6.97125H22.1306V3.51974H7.88493V6.97125H13.1163V9.23375C8.86422 9.42711 5.6665 10.2609 5.6665 11.26C5.6665 12.2592 8.86422 13.0921 13.1163 13.2863V20.5393H16.8974V13.2837C21.1398 13.0903 24.3322 12.2574 24.3322 11.2592C24.3322 10.2609 21.1424 9.42798 16.8974 9.23375L16.8983 9.23463Z" fill="white"/>
</g>
<defs>
<clipPath id="clip0_2088_2090">
<rect width="30" height="25.8333" fill="white"/>
</clipPath>
</defs>
</svg>
