<svg width="38" height="38" viewBox="0 0 38 38" fill="none" xmlns="http://www.w3.org/2000/svg">
<rect width="38" height="38" rx="8" fill="url(#paint0_linear_2008_3787)"/>
<path d="M12.3551 26L14.7699 11.4545H20.5938C21.6638 11.4545 22.5303 11.6132 23.1932 11.9304C23.8608 12.2476 24.3272 12.688 24.5923 13.2514C24.8575 13.8101 24.9285 14.4541 24.8054 15.1832C24.706 15.7514 24.5047 16.2486 24.2017 16.6747C23.9034 17.1009 23.5341 17.4512 23.0938 17.7259C22.6534 18.0005 22.1752 18.1946 21.6591 18.3082L21.6307 18.4503C22.1799 18.474 22.6747 18.6302 23.1151 18.919C23.5554 19.2031 23.8845 19.6056 24.1023 20.1264C24.3201 20.6473 24.3698 21.2652 24.2514 21.9801C24.1236 22.7519 23.8182 23.4408 23.3352 24.0469C22.8523 24.6482 22.2083 25.1241 21.4034 25.4744C20.6032 25.8248 19.6586 26 18.5696 26H12.3551ZM15.8565 23.4858H18.3636C19.2159 23.4858 19.867 23.3201 20.3168 22.9886C20.7666 22.6572 21.0365 22.2192 21.1264 21.6747C21.188 21.2723 21.1477 20.9171 21.0057 20.6094C20.8684 20.3016 20.634 20.0601 20.3026 19.8849C19.9759 19.7098 19.5616 19.6222 19.0597 19.6222H16.4886L15.8565 23.4858ZM16.8438 17.5412H19.1236C19.5402 17.5412 19.9261 17.4678 20.2812 17.321C20.6411 17.1695 20.937 16.9564 21.169 16.6818C21.4058 16.4025 21.5549 16.0734 21.6165 15.6946C21.7017 15.1643 21.5833 14.7405 21.2614 14.4233C20.9441 14.1013 20.447 13.9403 19.7699 13.9403H17.4403L16.8438 17.5412Z" fill="white"/>
<defs>
<linearGradient id="paint0_linear_2008_3787" x1="-1.29405e-07" y1="34" x2="36" y2="4.5" gradientUnits="userSpaceOnUse">
<stop stop-color="#D3CED5"/>
<stop offset="1" stop-color="#882ED2"/>
</linearGradient>
</defs>
</svg>
